<svg width="83" height="35" viewBox="0 0 83 35" fill="none" xmlns="http://www.w3.org/2000/svg">
<path d="M1.078 1.33356V25.0875H5.76754V33.1886L13.8686 25.0875H82.4478V1.33356H1.078Z" fill="white"/>
<path d="M1.07794 1.33372C1.15187 9.33972 1.36313 17.2613 1.39482 25.0877L1.07794 24.7708H5.76748H6.10547V25.1194V33.2204L5.44006 32.9353L13.4883 24.8025L13.6256 24.6758H13.8157L82.3949 24.6018L81.8773 25.1194V1.3654L82.3527 1.8407C58.9155 1.8407 24.7897 1.55552 1.02514 1.3654L1.07794 1.33372ZM1.07794 1.33372C25.1171 1.20697 58.7254 0.83732 82.4054 0.858444H82.8808V1.33372V25.0877V25.6052H82.3632L13.784 25.5419L14.1009 25.4046L5.95762 33.4634L5.28163 34.1288V33.1888V25.0877L5.63016 25.4362H0.940659H0.623779V25.1194C0.623779 17.1134 0.866715 9.19185 0.930087 1.3654L1.07794 1.33372Z" fill="#263238"/>
<path d="M13.2137 7.63937L15.062 10.3961L18.2623 11.3044L16.2133 13.9132L16.3295 17.2403L13.2137 16.089L10.0873 17.2403L10.2141 13.9132L8.16504 11.3044L11.3653 10.3961L13.2137 7.63937Z" fill="#FFB400"/>
<path d="M27.4935 7.63937L29.3419 10.3961L32.5316 11.3044L30.4826 13.9132L30.6093 17.2403L27.4935 16.089L24.3672 17.2403L24.4939 13.9132L22.4343 11.3044L25.6346 10.3961L27.4935 7.63937Z" fill="#FFB400"/>
<path d="M41.7628 7.63937L43.6111 10.3961L46.8114 11.3044L44.7624 13.9132L44.8785 17.2403L41.7628 16.089L38.6469 17.2403L38.7737 13.9132L36.7141 11.3044L39.9144 10.3961L41.7628 7.63937Z" fill="#FFB400"/>
<path d="M56.0427 7.63937L57.891 10.3961L61.0913 11.3044L59.0317 13.9132L59.1585 17.2403L56.0427 16.089L52.9163 17.2403L53.0431 13.9132L50.994 11.3044L54.1837 10.3961L56.0427 7.63937Z" fill="#FFB400"/>
<path d="M70.3119 16.089V7.63937L68.4636 10.3961L65.2633 11.3044L67.3229 13.9132L67.1961 17.2403L70.3119 16.089Z" fill="#FFB400"/>
<path d="M70.312 7.63937L72.2554 10.3327C72.9947 10.4383 74.4311 10.903 75.424 11.1354L75.6669 11.1988L75.5085 11.41L73.5017 14.0611V13.9132L73.6496 17.2297V17.5888L73.3116 17.4621L70.143 16.3425H70.3225L67.1539 17.4621L66.8054 17.5888V17.2297L66.9427 13.9132L66.9955 14.0611L64.9781 11.41L64.8197 11.1988L65.0732 11.1354C66.0449 10.903 67.4919 10.4278 68.2418 10.3327L70.1747 7.63937H70.312ZM70.312 7.63937L68.5481 10.4911C67.4919 10.903 66.3829 11.1671 65.3161 11.5473L65.4006 11.2727L67.513 13.8498C67.5271 13.8719 67.5346 13.8976 67.5346 13.9238C67.5346 13.95 67.5271 13.9756 67.513 13.9977L67.4074 17.3248L67.08 17.0818L70.1958 15.92C70.2908 15.92 70.2803 15.92 70.3753 15.92L73.4911 17.0818L73.1637 17.3248L73.0581 13.9977C73.0581 13.9132 73.0581 13.9132 73.0581 13.8498L75.1705 11.2727L75.2655 11.5473C74.2093 11.1988 73.0687 10.9347 72.0336 10.4911L70.2591 7.68163L70.312 7.63937Z" fill="#263238"/>
</svg>
