<svg width="427" height="346" viewBox="0 0 427 346" fill="none" xmlns="http://www.w3.org/2000/svg">
<path d="M322.081 0.729004V61.4606H330.605V76.184L345.339 61.4606H426.181V0.729004H322.081Z" fill="black"/>
<path d="M393.808 31.0948C393.808 32.0703 394.097 33.024 394.639 33.8351C395.181 34.6462 395.951 35.2785 396.853 35.6518C397.754 36.0251 398.746 36.1228 399.703 35.9325C400.659 35.7421 401.538 35.2724 402.228 34.5826C402.918 33.8927 403.388 33.0139 403.578 32.0571C403.768 31.1003 403.671 30.1085 403.297 29.2072C402.924 28.3059 402.292 27.5356 401.481 26.9936C400.67 26.4516 399.716 26.1623 398.74 26.1623C398.093 26.1623 397.451 26.2899 396.853 26.5378C396.254 26.7857 395.711 27.149 395.253 27.607C394.795 28.065 394.431 28.6088 394.183 29.2072C393.935 29.8056 393.808 30.447 393.808 31.0948Z" fill="white"/>
<path d="M369.198 31.0948C369.198 32.0703 369.488 33.024 370.03 33.8351C370.572 34.6462 371.342 35.2785 372.243 35.6518C373.145 36.0251 374.136 36.1228 375.093 35.9325C376.05 35.7421 376.929 35.2724 377.619 34.5826C378.309 33.8927 378.778 33.0139 378.969 32.0571C379.159 31.1003 379.061 30.1085 378.688 29.2072C378.315 28.3059 377.682 27.5356 376.871 26.9936C376.06 26.4516 375.106 26.1623 374.131 26.1623C372.823 26.1623 371.568 26.682 370.643 27.607C369.718 28.532 369.198 29.7866 369.198 31.0948Z" fill="white"/>
<path d="M344.589 31.0948C344.589 32.0708 344.879 33.0249 345.421 33.8362C345.963 34.6476 346.734 35.2798 347.636 35.6528C348.538 36.0258 349.531 36.1229 350.488 35.9317C351.445 35.7405 352.324 35.2697 353.013 34.5788C353.702 33.8879 354.171 33.0081 354.36 32.0506C354.55 31.0931 354.45 30.101 354.075 29.1999C353.7 28.2988 353.067 27.5292 352.254 26.9885C351.442 26.4478 350.487 26.1602 349.511 26.1623C348.205 26.1651 346.953 26.686 346.03 27.6107C345.107 28.5355 344.589 29.7885 344.589 31.0948Z" fill="white"/>
<path d="M147.449 193.127V278.087H135.524V298.694L114.918 278.087H1.81989V193.127H147.449Z" fill="white"/>
<path d="M147.459 193.126C147.533 217.281 148.072 254.217 148.093 278.087V278.71H147.459L135.535 278.763L136.221 278.076L136.317 298.683V300.573L134.975 299.242L114.284 278.71C89.4001 279.544 28.3516 278.826 0.78479 279.111V278.055L0.922093 193.094V192.186H1.81987C38.1321 192.355 111.158 192.756 147.449 193.084L147.459 193.126ZM147.459 193.126C111.168 193.453 38.1109 193.855 1.83043 194.024L2.7282 193.126L2.8655 278.087L1.8093 277.031C30.2211 277.031 86.8863 277.115 115.288 277.168L115.541 277.432L136.074 298.112L134.732 298.672L134.827 278.066V277.369H135.514L147.438 277.421L146.805 278.055C146.963 254.343 147.238 217.07 147.438 193.094L147.459 193.126Z" fill="black"/>
<path d="M47.1203 235.659C47.1224 237.026 46.7191 238.363 45.9614 239.5C45.2036 240.637 44.1255 241.524 42.8635 242.049C41.6015 242.573 40.2123 242.711 38.8717 242.446C37.531 242.181 36.2993 241.524 35.3322 240.558C34.3651 239.592 33.7061 238.362 33.4387 237.021C33.1714 235.681 33.3075 234.292 33.83 233.029C34.3525 231.766 35.2379 230.687 36.3741 229.927C37.5102 229.168 38.8462 228.762 40.2128 228.762C41.1194 228.761 42.0174 228.938 42.8554 229.284C43.6934 229.63 44.455 230.138 45.0965 230.779C45.7381 231.419 46.2471 232.18 46.5943 233.018C46.9416 233.855 47.1204 234.753 47.1203 235.659Z" fill="black"/>
<path d="M81.542 235.659C81.5441 237.026 81.1407 238.363 80.383 239.5C79.6252 240.637 78.5472 241.524 77.2852 242.049C76.0231 242.573 74.6339 242.711 73.2933 242.446C71.9527 242.181 70.7209 241.524 69.7538 240.558C68.7867 239.592 68.1278 238.362 67.8604 237.021C67.593 235.681 67.7292 234.292 68.2517 233.029C68.7742 231.766 69.6595 230.687 70.7957 229.927C71.9319 229.168 73.2678 228.762 74.6344 228.762C75.541 228.761 76.439 228.938 77.277 229.284C78.115 229.63 78.8766 230.138 79.5182 230.779C80.1597 231.419 80.6687 232.18 81.016 233.018C81.3632 233.855 81.542 234.753 81.542 235.659Z" fill="black"/>
<path d="M115.974 235.659C115.976 237.026 115.573 238.363 114.815 239.5C114.057 240.637 112.979 241.524 111.717 242.049C110.455 242.573 109.066 242.711 107.725 242.446C106.385 242.181 105.153 241.524 104.186 240.558C103.219 239.592 102.56 238.362 102.293 237.021C102.025 235.681 102.161 234.292 102.684 233.029C103.206 231.766 104.092 230.687 105.228 229.927C106.364 229.168 107.7 228.762 109.067 228.762C109.973 228.761 110.871 228.938 111.709 229.284C112.547 229.63 113.309 230.138 113.95 230.779C114.592 231.419 115.101 232.18 115.448 233.018C115.795 233.855 115.974 234.753 115.974 235.659Z" fill="black"/>
<path d="M21.085 32.4044L25.7111 39.3014L33.7066 41.5722L28.5735 48.0995L28.8798 56.4013L21.085 53.539L13.2902 56.4013L13.5965 48.0995L8.47394 41.5722L16.4588 39.3014L21.085 32.4044Z" fill="black"/>
<path d="M56.7741 32.4044L61.4002 39.3014L69.3851 41.5722L64.2625 48.0995L64.5688 56.4013L56.7741 53.539L48.9687 56.4013L49.2856 48.0995L44.1525 41.5722L52.1479 39.3014L56.7741 32.4044Z" fill="black"/>
<path d="M92.4525 32.4044L97.0893 39.3014L105.074 41.5722L99.941 48.0995L100.258 56.4013L92.4525 53.539L84.6578 56.4013L84.9641 48.0995L79.8415 41.5722L87.8264 39.3014L92.4525 32.4044Z" fill="black"/>
<path d="M128.142 32.4044L132.768 39.3014L140.763 41.5722L135.63 48.0995L135.936 56.4013L128.142 53.539L120.347 56.4013L120.653 48.0995L115.52 41.5722L123.515 39.3014L128.142 32.4044Z" fill="black"/>
<path d="M172.185 57.1616L163.831 54.0986L155.476 57.1616L155.803 48.2684L150.311 41.3186L158.866 38.8893L163.831 31.4959L168.784 38.8893L177.35 41.3186L171.858 48.3212L172.185 57.1616ZM163.831 52.9368L171.066 55.5879L170.78 47.8882L175.544 41.815L168.15 39.7026L163.852 33.2915L159.553 39.7026L152.16 41.815L156.923 47.8882L156.638 55.5879L163.831 52.9368Z" fill="black"/>
<path d="M163.831 53.539V32.4044L159.204 39.3014L151.209 41.5722L156.342 48.0995L156.025 56.4013L163.831 53.539Z" fill="black"/>
<path fill-rule="evenodd" clip-rule="evenodd" d="M350.641 193.602C348.529 192.302 346.765 190.433 343.997 190.697C342.941 190.813 343.163 189.926 343.152 189.356L343.026 158.134C343.026 157.384 343.026 156.761 343.892 156.339C351.824 152.304 355.246 144.404 360.094 137.655C362.579 134.3 364.363 130.479 365.34 126.419C366.316 122.36 366.465 118.145 365.776 114.027C365.438 111.683 366.526 110.637 368.639 110.151C371.174 109.56 373.708 110.257 374.585 111.999C376.882 116.241 378.432 120.847 379.169 125.614C379.634 129.564 378.24 133.409 377.754 137.317C377.405 140.168 376.697 142.999 376.212 145.893C376.909 146.4 377.722 146.136 378.472 146.136C387.259 146.136 396.061 146.111 404.877 146.062C408.574 146.062 410.401 147.118 410.918 149.569C411.208 151.081 410.993 152.646 410.306 154.024C409.619 155.402 408.498 156.516 407.116 157.194C406.461 157.532 405.268 157.194 405.194 158.251C405.12 159.307 406.345 159.191 406.947 159.613C410.116 161.789 409.566 166.288 405.891 168.908C405.004 169.531 403.293 169.246 403.25 170.545C403.25 171.601 404.845 171.601 405.574 172.287C408.151 174.822 406.884 179.565 403.05 181.498C402.523 181.66 402.008 181.857 401.508 182.089C401.075 182.385 400.652 182.723 401.508 183.314C405.321 186.018 405.257 189.81 401.434 192.588L400.293 193.411C398.907 194.259 397.283 194.63 395.667 194.468C381.887 194.545 368.1 194.594 354.306 194.616C353.658 194.699 353.001 194.653 352.371 194.479C351.742 194.304 351.153 194.006 350.641 193.602Z" fill="black"/>
<path fill-rule="evenodd" clip-rule="evenodd" d="M311.382 175.372C311.382 168.77 311.382 162.148 311.287 155.547C311.287 154.195 311.414 153.54 313.061 153.551C321.131 153.624 329.179 153.551 337.248 153.477C338.833 153.477 339.076 154.005 339.076 155.409C339.076 168.711 339.121 182.012 339.213 195.313C339.213 197.013 338.769 197.489 337.1 197.425C329.274 197.362 321.458 197.372 313.642 197.52C311.699 197.52 311.424 196.876 311.435 195.175C311.488 188.606 311.403 181.994 311.382 175.372Z" fill="black"/>
<path fill-rule="evenodd" clip-rule="evenodd" d="M197.956 281.964C199.52 282.957 200.882 284.383 202.984 284.182C203.797 284.108 203.618 284.773 203.618 285.238C203.618 293.146 203.618 301.046 203.618 308.939C203.618 309.51 203.618 309.995 202.952 310.302C196.921 313.344 194.302 319.322 190.616 324.444C188.713 326.988 187.344 329.889 186.591 332.975C185.838 336.06 185.716 339.266 186.233 342.4C186.486 344.185 185.662 344.977 184.057 345.336C182.124 345.78 180.212 345.251 179.547 343.921C177.809 340.695 176.644 337.193 176.104 333.57C175.755 330.581 176.832 327.655 177.16 324.698C177.434 322.522 177.941 320.389 178.353 318.192C177.825 317.801 177.213 318.001 176.642 317.991H156.691C153.871 317.991 152.466 317.178 152.107 315.319C151.893 314.169 152.06 312.981 152.585 311.936C153.109 310.891 153.962 310.046 155.011 309.531C155.508 309.277 156.416 309.531 156.479 308.728C156.543 307.925 155.603 308.01 155.149 307.672C152.73 306.024 153.184 302.602 155.972 300.627C156.648 300.152 157.948 300.373 157.979 299.391C157.979 298.599 156.775 298.61 156.226 298.06C154.272 296.128 155.244 292.536 158.159 291.079C158.56 290.956 158.952 290.804 159.331 290.625C159.659 290.403 159.986 290.16 159.331 289.695C156.448 287.583 156.511 284.763 159.416 282.661L160.282 282.038C161.34 281.408 162.575 281.141 163.799 281.277C174.262 281.277 184.726 281.277 195.189 281.277C196.166 281.133 197.16 281.38 197.956 281.964Z" fill="black"/>
<path fill-rule="evenodd" clip-rule="evenodd" d="M227.731 295.863C227.731 300.88 227.731 305.908 227.731 310.925C227.731 311.981 227.636 312.446 226.389 312.424C220.263 312.354 214.141 312.354 208.022 312.424C206.829 312.424 206.638 312.023 206.649 310.956C206.649 300.859 206.649 290.762 206.649 280.664C206.649 279.376 206.998 279.006 208.286 279.038C214.222 279.101 220.158 279.112 226.094 279.038C227.572 279.038 227.773 279.534 227.752 280.833C227.657 285.861 227.731 290.878 227.731 295.863Z" fill="black"/>
</svg>
