<svg width="344" height="408" viewBox="0 0 344 408" fill="none" xmlns="http://www.w3.org/2000/svg">
<path d="M35.9106 304.316C35.9106 304.316 12.558 345.614 12.5475 345.645C8.78738 353.968 5.65047 361.34 4.38302 365.301C4.37844 365.322 4.37844 365.344 4.38302 365.365C3.98529 366.261 3.80091 367.237 3.84436 368.216C3.84436 368.216 3.84436 368.269 3.84436 368.29C5.56597 371.079 71.2406 402.997 73.9022 403.335C76.5638 403.673 77.7573 396.111 76.1942 392.836C74.631 389.562 54.9434 366.104 54.9434 366.104L77.8735 324.648L35.9106 304.316Z" fill="#EB9481"/>
<path d="M72.8566 403.102C70.1949 402.754 5.56597 371.078 3.84436 368.248C3.8409 368.223 3.8409 368.198 3.84436 368.174C3.80091 367.194 3.98529 366.218 4.38302 365.322C4.37715 365.301 4.37715 365.279 4.38302 365.259C5.65047 361.298 8.79795 353.926 12.5369 345.592C12.5369 345.592 16.4765 338.378 18.0397 335.875L59.8125 357.517L54.9434 366.114C54.9434 366.114 73.5748 389.351 75.138 392.604C76.7011 395.857 75.5816 403.451 72.8566 403.102Z" fill="black"/>
<path d="M74.05 402.204C71.3673 401.803 5.93561 368.089 4.26681 365.237C3.61196 364.181 7.96351 354.337 13.5719 342.624L13.7515 342.254L56.2108 363.537L55.82 364.244C55.82 364.244 75.0957 388.347 76.606 391.706C78.1164 395.064 76.7328 402.627 74.05 402.204Z" fill="#6864ED"/>
<path d="M74.6204 399.289C63.7309 393.332 19.2437 370.349 8.07969 365.301C7.98463 365.301 7.95295 365.301 8.07969 365.364C18.7368 371.501 63.4141 394.124 74.6204 399.469C74.7682 399.585 74.8527 399.416 74.6204 399.289Z" fill="white"/>
<path d="M59.3055 366.187C55.3764 363.135 49.7258 361.065 44.8144 362.448C44.6243 362.512 44.7088 362.776 44.8144 362.808C49.6518 363.604 54.3897 364.918 58.9464 366.726C58.9818 366.75 59.0214 366.766 59.0631 366.774C59.1048 366.783 59.1478 366.782 59.1894 366.774C59.2311 366.766 59.2708 366.749 59.3061 366.726C59.3414 366.702 59.3717 366.672 59.3953 366.636C59.4189 366.601 59.4352 366.561 59.4435 366.52C59.4517 366.478 59.4517 366.435 59.4434 366.393C59.435 366.352 59.4186 366.312 59.3949 366.277C59.3713 366.241 59.3409 366.211 59.3055 366.187Z" fill="#263238"/>
<path d="M61.4602 369.683C57.5417 366.642 51.891 364.571 46.9796 365.955C46.7895 366.008 46.8635 366.282 46.9796 366.304C51.8334 367.088 56.589 368.391 61.1644 370.19C61.2285 370.206 61.2959 370.2 61.3565 370.175C61.4172 370.149 61.4679 370.104 61.5011 370.047C61.5343 369.99 61.5483 369.924 61.5409 369.858C61.5335 369.793 61.5052 369.732 61.4602 369.683Z" fill="#263238"/>
<path d="M63.6253 373.191C59.7385 370.192 54.0456 368.079 49.1765 369.463C48.9864 369.516 49.0709 369.78 49.2293 369.811C54.067 370.606 58.805 371.92 63.3613 373.73C63.4269 373.738 63.4935 373.726 63.5518 373.695C63.61 373.663 63.657 373.614 63.6861 373.555C63.7153 373.496 63.7251 373.429 63.7142 373.363C63.7032 373.298 63.6722 373.238 63.6253 373.191Z" fill="#263238"/>
<path d="M20.7752 355.14C17.258 350.323 9.76958 355.794 13.2973 360.611C16.825 365.427 24.3029 359.966 20.7752 355.14Z" fill="white"/>
<path opacity="0.1" d="M58.6823 367.846L63.3823 397.23C66.8436 399.069 70.3972 400.729 74.0289 402.204C76.701 402.627 78.0741 395.012 76.5849 391.642C75.4653 389.202 64.1323 374.701 58.6823 367.846Z" fill="black"/>
<path d="M76.2575 400.378C77.1975 401.434 74.9161 405.236 73.9127 405.11C72.9093 404.983 1.72137 367.921 0.65461 367.023C-0.412153 366.125 2.2706 362.006 3.82321 362.513C5.37583 363.02 76.2575 400.378 76.2575 400.378Z" fill="#263238"/>
<path d="M17.9446 332.062L65.0195 357.189C65.0195 357.189 124.42 272.524 125.603 250.291C127.251 219.566 101.015 122.047 101.015 122.047L59.1787 121.762C59.1787 121.762 76.1941 222.101 74.8105 239.169C74.0711 248.115 17.9446 332.062 17.9446 332.062Z" fill="#263238"/>
<path d="M69.1071 347.462C66.6884 345.709 44.3814 332.791 27.3976 324.532C27.3866 324.526 27.3743 324.522 27.3617 324.52C27.3491 324.519 27.3362 324.52 27.324 324.523C27.3117 324.526 27.3003 324.532 27.2902 324.54C27.2802 324.548 27.2719 324.558 27.2656 324.569C27.2594 324.58 27.2554 324.592 27.2539 324.605C27.2523 324.617 27.2533 324.63 27.2568 324.642C27.2602 324.655 27.266 324.666 27.2739 324.676C27.2817 324.686 27.2915 324.695 27.3026 324.701C32.4569 328.102 65.7589 346.342 68.9909 347.642C69.0965 347.684 69.2444 347.536 69.1071 347.462Z" fill="#37474F"/>
<path d="M80.6091 217.739C78.6656 203.058 76.5216 188.408 74.0817 173.801C71.6419 159.194 69.0542 144.481 65.9912 129.926C65.611 128.152 65.2237 126.392 64.8294 124.645C64.8239 124.618 64.8129 124.591 64.7972 124.568C64.7814 124.544 64.7612 124.524 64.7377 124.508C64.7141 124.493 64.6877 124.482 64.66 124.476C64.6322 124.471 64.6037 124.471 64.5759 124.476C64.5482 124.482 64.5218 124.493 64.4983 124.509C64.4748 124.524 64.4546 124.545 64.4389 124.568C64.4232 124.592 64.4123 124.618 64.4068 124.646C64.4013 124.674 64.4014 124.702 64.4069 124.73C66.9841 139.168 69.6879 153.585 72.001 168.034C74.3141 182.483 76.6377 196.974 78.5811 211.529C79.067 215.12 79.5423 218.718 80.007 222.323C80.5801 226.034 80.9328 229.776 81.0632 233.529C81.1283 237.113 80.5229 240.677 79.2782 244.038C77.9502 247.322 76.335 250.482 74.4514 253.481C66.889 266.282 32.9849 322.24 32.1083 323.866C32.1083 323.972 32.2033 324.088 32.2667 323.982C40.3995 311.308 65.6321 271.046 73.3107 258.033C76.775 252.161 80.7041 246.214 81.8765 239.37C83.0594 232.251 81.5385 224.805 80.6091 217.739Z" fill="#37474F"/>
<path d="M68.5472 332.062C68.5472 332.062 68.0825 379.792 68.0825 379.824C68.3254 388.949 68.7162 396.945 69.2972 401.074C69.2922 401.095 69.2922 401.117 69.2972 401.138C69.3302 402.116 69.5868 403.073 70.0471 403.937L70.1104 403.989C72.8777 405.753 145.893 405.87 148.438 405.046C150.984 404.222 148.755 396.86 145.925 394.6C143.094 392.34 115.147 379.813 115.147 379.813V332.115L68.5472 332.062Z" fill="#EB9481"/>
<path d="M68.1881 370.022C68.1881 370.022 68.0931 379.792 68.0931 379.823C68.336 388.949 68.7268 396.945 69.3077 401.074C69.3028 401.095 69.3028 401.117 69.3077 401.138C69.4498 402.096 69.7015 403.035 70.0576 403.937L70.121 403.989C72.8882 405.753 145.903 405.869 148.449 405.046C150.994 404.222 148.766 396.86 145.935 394.6C143.104 392.339 115.157 379.813 115.157 379.813V369.864L68.1881 370.022Z" fill="black"/>
<path d="M148.459 404.93C145.882 405.743 72.2862 404.455 69.519 402.617C68.4628 401.941 68.0191 391.21 67.8607 378.229V377.817L115.39 378.124V378.926C115.39 378.926 143.337 392.023 146.167 394.357C148.998 396.692 151.068 404.117 148.459 404.93Z" fill="#6864ED"/>
<path d="M147.699 402.056C135.299 401.528 85.2352 400.599 72.941 401C72.846 401 72.8354 401.074 72.941 401.074C85.2141 401.866 135.257 402.394 147.699 402.236C147.963 402.257 147.963 402.067 147.699 402.056Z" fill="white"/>
<path d="M119.319 379.137C114.46 378.144 108.472 378.788 104.68 382.2C104.532 382.337 104.68 382.538 104.881 382.496C109.574 381.068 114.408 380.15 119.298 379.76C119.371 379.749 119.438 379.713 119.488 379.658C119.537 379.602 119.566 379.532 119.568 379.457C119.571 379.383 119.547 379.31 119.502 379.252C119.456 379.193 119.391 379.153 119.319 379.137Z" fill="#263238"/>
<path d="M122.815 381.323C117.946 380.33 111.957 380.975 108.165 384.386C108.017 384.513 108.165 384.724 108.366 384.682C113.059 383.254 117.893 382.337 122.783 381.946C122.857 381.937 122.925 381.902 122.976 381.848C123.027 381.793 123.056 381.722 123.06 381.648C123.064 381.574 123.041 381.5 122.997 381.441C122.952 381.382 122.887 381.34 122.815 381.323Z" fill="#263238"/>
<path d="M126.279 383.51C121.41 382.517 115.421 383.161 111.63 386.573C111.492 386.7 111.63 386.911 111.841 386.869C116.541 385.438 121.382 384.521 126.279 384.133C126.352 384.12 126.418 384.081 126.465 384.024C126.513 383.967 126.538 383.896 126.538 383.821C126.538 383.747 126.513 383.676 126.465 383.619C126.418 383.562 126.352 383.523 126.279 383.51Z" fill="#263238"/>
<path d="M149.653 402.31C150.963 402.838 150.604 407.253 149.653 407.591C148.702 407.929 68.4627 406.165 67.1002 405.837C65.7377 405.51 66.3292 400.62 67.9241 400.398C69.5189 400.176 149.653 402.31 149.653 402.31Z" fill="#263238"/>
<path d="M79.8908 386.277C74.6098 383.51 70.3005 391.727 75.5921 394.494C80.8837 397.261 85.1824 389.044 79.8908 386.277Z" fill="white"/>
<path d="M100.476 121.983C100.202 122.85 85.1613 164.052 83.746 164.707C82.1406 165.446 116.964 223.928 119.023 251.104C120.333 268.479 117.756 366.822 117.756 366.822H66.8468C66.8468 366.822 69.2866 278.407 70.4484 250.396C70.9026 239.528 35.4987 185.44 35.0657 151.768C34.9284 141.154 42.5541 121.751 42.5541 121.751L100.476 121.983Z" fill="#263238"/>
<path d="M70.7441 249.647C70.7441 249.193 70.385 249.055 70.3533 249.51C69.2021 264.677 68.938 279.749 68.2409 294.926C67.5438 310.104 67.9346 313.716 67.2587 328.862C66.8784 337.428 67.2587 346.025 67.0369 354.602C67.0369 354.63 67.048 354.656 67.0678 354.676C67.0876 354.696 67.1145 354.707 67.1425 354.707C67.1705 354.707 67.1974 354.696 67.2172 354.676C67.237 354.656 67.2481 354.63 67.2481 354.602C68.8007 339.561 70.7336 258.234 70.7441 249.647Z" fill="#37474F"/>
<path d="M119.013 251.706C118.94 247.964 118.587 244.232 117.956 240.542C117.244 236.955 116.183 233.446 114.788 230.065C111.968 222.977 108.651 216.059 105.472 209.131C102.293 202.202 98.9658 195.115 95.5754 188.165C93.6601 184.271 91.7379 180.377 89.8085 176.484C87.8546 172.554 85.7527 168.689 83.7037 164.802C83.6847 164.777 83.6574 164.759 83.6266 164.751C83.5957 164.743 83.5632 164.747 83.5346 164.76C83.506 164.774 83.483 164.797 83.4695 164.826C83.456 164.855 83.453 164.887 83.4608 164.918C86.7244 171.921 89.9353 178.944 93.1989 185.947C96.4626 192.95 99.6629 199.984 102.874 207.018C106.085 214.053 109.211 220.855 112.158 227.857C113.641 231.184 114.856 234.624 115.791 238.145C116.63 241.787 117.128 245.5 117.28 249.235C117.766 257.927 118.009 266.651 118.865 275.323C118.865 275.428 119.055 275.418 119.055 275.323C119.372 267.465 119.245 259.554 119.013 251.706Z" fill="#37474F"/>
<path d="M114.059 356.766C111.102 356.386 88.5412 355.605 69.6985 356.407C69.6733 356.407 69.6491 356.417 69.6313 356.435C69.6135 356.453 69.6035 356.477 69.6035 356.502C69.6035 356.528 69.6135 356.552 69.6313 356.57C69.6491 356.587 69.6733 356.597 69.6985 356.597C75.8562 357.147 110.595 357.379 114.059 356.988C114.143 356.978 114.196 356.788 114.059 356.766Z" fill="#37474F"/>
<path d="M90.7697 162.426C85.3151 163.806 79.9898 165.654 74.8527 167.95C74.8312 167.957 74.8115 167.969 74.7945 167.984C74.7776 168 74.7638 168.018 74.754 168.039C74.7442 168.059 74.7385 168.082 74.7374 168.104C74.7362 168.127 74.7395 168.15 74.7471 168.171C74.7547 168.193 74.7665 168.213 74.7818 168.23C74.7971 168.247 74.8156 168.26 74.8361 168.27C74.8567 168.28 74.8791 168.286 74.9019 168.287C74.9246 168.288 74.9474 168.285 74.9689 168.277C80.2499 166.598 85.7422 165.034 90.9809 163.07C91.0664 163.042 91.1372 162.981 91.1778 162.901C91.2184 162.821 91.2255 162.728 91.1975 162.642C91.1695 162.557 91.1086 162.486 91.0284 162.445C90.9482 162.405 90.8551 162.398 90.7697 162.426Z" fill="#37474F"/>
<path d="M95.9028 127.539C95.9028 127.36 95.6071 127.286 95.586 127.476C95.0051 133.56 94.065 138.862 92.9771 144.492C92.4702 147.1 88.8474 161.454 84.3902 159.923C83.6403 159.659 83.334 158.866 83.334 157.705C83.5042 156.199 83.8589 154.719 84.3902 153.3C85.2141 150.301 85.9323 147.28 86.5026 144.227C87.6219 138.548 88.1493 132.768 88.0764 126.98C88.0764 126.94 88.0608 126.903 88.0331 126.875C88.0053 126.847 87.9677 126.832 87.9285 126.832C87.8893 126.832 87.8517 126.847 87.8239 126.875C87.7962 126.903 87.7806 126.94 87.7806 126.98C87.1054 134.948 85.8272 142.853 83.9572 150.628C82.996 154.367 80.5034 159.87 84.4008 160.863C88.2982 161.855 91.9738 152.582 92.7342 150.015C94.76 142.692 95.8251 135.137 95.9028 127.539Z" fill="#37474F"/>
<path d="M84.4747 160.324C83.9658 161.266 83.5177 162.24 83.1334 163.239C82.7583 164.003 82.529 164.831 82.4574 165.679C82.4574 165.837 82.6686 165.879 82.7637 165.774C83.3133 165.076 83.7548 164.3 84.0734 163.471C84.517 162.574 84.9817 161.686 85.3936 160.767C85.4525 160.646 85.4605 160.505 85.4159 160.378C85.3713 160.25 85.2778 160.145 85.156 160.086C85.0341 160.027 84.8939 160.019 84.7661 160.064C84.6384 160.108 84.5336 160.202 84.4747 160.324Z" fill="#37474F"/>
<path d="M75.9512 264.571C76.2152 257.336 77.0074 249.784 74.6415 242.761C73.3487 239.346 71.7986 236.034 70.0048 232.853C68.2444 229.453 66.5123 226.034 64.8083 222.598C58.0063 208.867 51.5952 194.904 45.8706 180.688C43.1139 173.833 40.6529 166.809 39.6707 159.458C38.7659 151.739 39.2452 143.92 41.086 136.369C41.519 134.489 41.9732 132.609 42.4907 130.75C42.4907 130.613 42.3217 130.539 42.2795 130.677C39.871 137.798 38.5327 145.237 38.3082 152.751C38.3572 159.961 39.6544 167.108 42.1422 173.875C44.582 180.973 47.6344 187.88 50.5918 194.756C53.697 201.854 56.922 208.895 60.2666 215.88C63.5936 222.82 67.1425 229.611 70.6596 236.487C72.474 239.74 73.7912 243.247 74.5676 246.89C75.1096 250.664 75.2512 254.484 74.9901 258.287C74.388 274.288 73.0044 327.574 72.8037 343.543C72.8037 345.571 72.8037 347.599 72.7298 349.617C72.7298 349.796 73.0044 349.828 73.0149 349.617C74.0817 333.721 75.3808 280.562 75.9512 264.571Z" fill="#37474F"/>
<path d="M64.5336 132.324C64.5336 132.208 64.3646 132.229 64.3435 132.324C63.7414 136.728 63.4034 141.301 61.2699 145.294C59.3265 148.959 55.915 151.325 52.2077 152.983C50.0469 153.909 47.8401 154.723 45.5959 155.423C45.4375 155.476 45.4797 155.719 45.5959 155.687C49.8207 154.81 54.0455 153.828 57.7528 151.462C61.6607 148.938 63.6781 144.882 64.3223 140.351C64.6717 137.69 64.7425 135 64.5336 132.324Z" fill="#37474F"/>
<path d="M94.5931 62.5513C103.243 79.0703 130.419 102.94 139.08 105.032C149.769 107.598 173.491 89.7062 182.691 79.1653C186.493 74.8032 170.64 55.7916 163.817 56.6788C160.056 57.1752 140.823 76.4931 137.644 75.1623C129.986 71.9937 119.34 65.4241 104.141 56.626C95.8711 51.8414 89.2171 52.2744 94.5931 62.5513Z" fill="#EB9481"/>
<path d="M155.62 63.0476C155.62 63.0476 159.93 55.369 162.57 52.4116C165.211 49.4543 179.089 42.0397 180.864 44.9443C183.145 48.7044 175.973 54.5557 172.087 56.9639C172.087 56.9639 177.368 65.6458 173.143 70.9691C168.918 76.2923 155.62 63.0476 155.62 63.0476Z" fill="#EB9481"/>
<path d="M179.776 81.9955C182.712 80.3161 195.482 71.4335 198.481 68.1909C201.481 64.9484 209.434 54.9145 207.174 52.3479C204.913 49.7813 202.347 52.538 202.347 52.538C202.347 52.538 205.03 47.7851 202.516 45.4192C200.002 43.0533 196.179 47.4577 196.179 47.4577C196.179 47.4577 198.587 42.3668 195.904 40.191C193.221 38.0152 190.106 43.0956 190.106 43.0956C190.106 43.0956 192.514 38.5433 189.556 37.6773C185.997 36.6211 182.49 45.5354 178.91 48.8836C178.097 49.644 161.313 63.1528 161.313 63.1528L179.776 81.9955Z" fill="#EB9481"/>
<path d="M190.359 42.6735C187.761 49.2114 185.5 51.6196 179.903 55.6965C179.797 55.781 179.903 55.9605 180.008 55.8866C185.849 52.3906 189.134 49.7818 190.676 42.7897C190.76 42.4412 190.486 42.3672 190.359 42.6735Z" fill="#263238"/>
<path d="M196.348 46.9932C193.063 53.5417 190.634 56.1822 185.089 60.8823C185.004 60.9456 185.089 61.0935 185.194 61.0301C191.024 56.8687 194.235 54.186 196.654 47.2045C196.77 46.8559 196.506 46.6552 196.348 46.9932Z" fill="#263238"/>
<path d="M202.051 52.7812C198.407 58.8966 195.862 61.9068 189.894 65.7725C189.87 65.7936 189.854 65.8224 189.849 65.854C189.844 65.8857 189.85 65.9181 189.867 65.9456C189.883 65.9732 189.908 65.9942 189.938 66.005C189.968 66.0158 190.001 66.0158 190.032 66.0048C196.496 62.6461 199.696 58.9177 202.231 52.9185C202.4 52.5066 202.326 52.401 202.051 52.7812Z" fill="#263238"/>
<path d="M181.202 46.1803C180.821 51.1128 175.509 53.9434 171.918 56.5628C171.863 56.6007 171.819 56.6513 171.788 56.7101C171.757 56.769 171.741 56.8343 171.741 56.9007C171.741 56.9671 171.757 57.0325 171.788 57.0914C171.819 57.1502 171.863 57.2008 171.918 57.2387C173.893 61.0199 175.583 66.9346 173.491 70.9693C173.482 70.9927 173.482 71.0184 173.49 71.042C173.499 71.0655 173.515 71.0854 173.537 71.0981C173.558 71.1108 173.583 71.1154 173.608 71.1111C173.633 71.1069 173.655 71.0941 173.671 71.075C176.491 67.0931 175.308 61.1467 172.879 57.1331C176.607 54.5137 181.804 51.4296 181.276 46.2225L181.202 46.1803Z" fill="#263238"/>
<path d="M124.389 66.3219L113.605 91.2588C113.605 91.2588 94.815 68.0224 91.2239 59.6256C87.1998 50.162 92.8822 50.162 101.987 53.732C111.091 57.3019 124.389 66.3219 124.389 66.3219Z" fill="#6864ED"/>
<path d="M117.566 64.3465C117.25 64.3366 116.942 64.2496 116.668 64.093C116.41 63.9404 116.197 63.7222 116.05 63.4607C115.904 63.1992 115.829 62.9035 115.833 62.6038C115.825 62.2097 115.702 61.8267 115.479 61.502C115.255 61.1772 114.942 60.9251 114.577 60.7766C114.238 60.6556 113.876 60.6193 113.52 60.6709C113.182 60.6709 112.834 60.7449 112.464 60.8083L113.52 60.935C113.84 60.9418 114.154 61.0213 114.439 61.1674C114.702 61.308 114.923 61.5162 115.079 61.7705C115.235 62.0248 115.32 62.3161 115.326 62.6144C115.322 63.007 115.432 63.3924 115.644 63.7228C115.857 64.0532 116.161 64.3142 116.52 64.4733C116.851 64.6195 117.217 64.6707 117.576 64.6211C117.925 64.5683 118.273 64.5472 118.632 64.4838C118.263 64.4205 117.914 64.3888 117.566 64.3465ZM91.1605 58.6008C91.1605 58.2522 91.0866 57.9143 91.0232 57.5446C90.9599 57.8931 90.9387 58.2311 90.8965 58.6008C90.9016 58.6429 90.9016 58.6854 90.8965 58.7275L91.1605 59.3824C91.196 59.1255 91.1853 58.8644 91.1288 58.6114L91.1605 58.6008ZM108.26 73.7045C108.029 73.9232 107.745 74.0795 107.437 74.1586C107.148 74.2331 106.845 74.2304 106.557 74.1507C106.27 74.0709 106.009 73.9171 105.799 73.7045C105.517 73.4311 105.16 73.2465 104.773 73.1733C104.387 73.1001 103.987 73.1416 103.624 73.2925C103.282 73.4509 102.988 73.6946 102.768 74.0002C102.557 74.2748 102.335 74.5283 102.134 74.8241C102.42 74.6234 102.684 74.4016 102.958 74.1903C103.188 73.9651 103.466 73.7953 103.772 73.6939C104.057 73.6108 104.36 73.6041 104.649 73.6745C104.938 73.745 105.204 73.89 105.419 74.0953C105.62 74.3039 105.864 74.4661 106.133 74.5705C106.403 74.675 106.693 74.7193 106.982 74.7001C107.27 74.681 107.551 74.599 107.805 74.4599C108.059 74.3207 108.279 74.1278 108.451 73.8946C108.662 73.62 108.884 73.3559 109.084 73.0708C108.767 73.2714 108.503 73.4932 108.229 73.7045H108.26Z" fill="white"/>
<path d="M119.498 65.2443C117.692 68.2333 113.541 77.9187 112.844 79.5664C112.475 80.4113 111.144 83.7912 110.732 84.6784C110.732 84.784 110.859 84.8368 110.901 84.6784C111.619 83.0835 112.506 81.5098 113.235 79.9572C113.964 78.4046 118.516 68.6136 119.572 65.2548C119.563 65.2455 119.55 65.2394 119.537 65.2375C119.524 65.2356 119.51 65.238 119.498 65.2443Z" fill="#263238"/>
<path opacity="0.1" d="M91.2133 59.6679C94.8044 68.1175 113.594 91.354 113.594 91.354L119.15 78.5L93.0406 51.6408C89.8614 51.7147 88.8052 53.9961 91.2133 59.6679Z" fill="black"/>
<path d="M35.6676 132.778L107.627 146.72C107.352 148.135 110.711 97.0785 105.451 61.6429C103.898 51.1654 92.1321 46.2118 81.1582 55.4747C57.9957 74.9722 35.4986 133.697 35.6676 132.778Z" fill="#6864ED"/>
<path d="M50.5812 99.9622L50.2433 100.638L50.4545 100.406C50.6552 100.131 50.8875 99.8671 51.0777 99.5819C50.9087 99.6981 50.7397 99.8037 50.5812 99.9622ZM106.94 132.704C106.657 132.432 106.299 132.248 105.913 132.177C105.526 132.105 105.126 132.149 104.764 132.303C104.422 132.456 104.127 132.696 103.909 133C103.698 133.275 103.476 133.539 103.275 133.824C103.56 133.623 103.824 133.402 104.099 133.19C104.33 132.969 104.608 132.803 104.912 132.704C105.198 132.619 105.501 132.611 105.79 132.682C106.08 132.752 106.346 132.899 106.56 133.106C106.761 133.305 107 133.463 107.263 133.568C107.527 133.673 107.808 133.724 108.091 133.718C108.091 133.549 108.091 133.38 108.091 133.211C107.652 133.187 107.24 132.994 106.94 132.673V132.704ZM64.7449 136.528C64.511 136.746 64.2286 136.905 63.9211 136.993C63.6314 137.065 63.3278 137.06 63.0406 136.978C62.7534 136.897 62.4926 136.741 62.284 136.528C61.9982 136.255 61.6391 136.072 61.2507 136.001C60.8623 135.93 60.4615 135.973 60.0976 136.127C59.7596 136.281 59.4681 136.521 59.2527 136.824L58.8724 137.309H59.0203L59.4322 136.993C59.66 136.773 59.9343 136.606 60.2349 136.507C60.5221 136.421 60.827 136.412 61.1184 136.483C61.4098 136.553 61.6772 136.7 61.8932 136.908C62.0945 137.116 62.3389 137.278 62.6092 137.381C62.8795 137.485 63.1692 137.528 63.458 137.508C63.7468 137.488 64.0276 137.405 64.281 137.265C64.5343 137.125 64.7539 136.931 64.9245 136.697C65.1357 136.422 65.3575 136.169 65.5582 135.873C65.2836 136.063 65.0195 136.285 64.7449 136.496V136.528ZM83.6087 99.3707C83.3792 99.5868 83.0998 99.7429 82.7954 99.8249C82.5052 99.9025 82.1995 99.9013 81.9099 99.8214C81.6203 99.7416 81.3572 99.586 81.1477 99.3707C80.8658 99.0955 80.5084 98.9104 80.1209 98.8389C79.7335 98.7674 79.3335 98.8129 78.9719 98.9694C78.63 99.1218 78.3348 99.3624 78.1164 99.6664C77.9052 99.9411 77.6834 100.205 77.4827 100.49C77.7679 100.29 78.0319 100.068 78.3065 99.8566C78.5328 99.6293 78.8124 99.4623 79.1198 99.3707C79.4043 99.2829 79.7072 99.2729 79.9969 99.3416C80.2866 99.4103 80.5527 99.5553 80.7675 99.7615C81.038 100.033 81.3804 100.222 81.7545 100.307C82.1286 100.391 82.519 100.367 82.8799 100.237C83.2312 100.101 83.5356 99.8659 83.7565 99.5608C83.9678 99.2862 84.1896 99.0222 84.3902 98.737C84.1473 98.906 83.8833 99.1278 83.6087 99.339V99.3707ZM106.919 74.2331C106.485 74.2258 106.071 74.0474 105.768 73.7367C105.485 73.4634 105.128 73.2787 104.741 73.2055C104.355 73.1323 103.955 73.1738 103.592 73.3248C103.251 73.4831 102.956 73.7269 102.736 74.0324C102.525 74.3071 102.303 74.5605 102.103 74.8563C102.388 74.6556 102.652 74.4338 102.927 74.2226C103.156 73.9973 103.435 73.8275 103.74 73.7261C104.026 73.643 104.328 73.6363 104.617 73.7068C104.906 73.7772 105.172 73.9223 105.388 74.1275C105.592 74.3337 105.838 74.494 106.11 74.5978C106.381 74.7016 106.671 74.7465 106.961 74.7295C106.959 74.5527 106.945 74.3763 106.919 74.2014V74.2331ZM108.134 94.3009C107.8 94.3531 107.484 94.4876 107.214 94.6923C106.945 94.8969 106.731 95.1653 106.592 95.4733C106.456 95.8079 106.409 96.1715 106.454 96.5295C106.454 96.8675 106.528 97.2161 106.592 97.5857C106.655 97.2477 106.676 96.8992 106.718 96.5295C106.737 96.2107 106.827 95.9001 106.982 95.6212C107.107 95.4088 107.277 95.2261 107.479 95.0856C107.682 94.9452 107.912 94.8505 108.155 94.8079C108.144 94.5967 108.134 94.4171 108.134 94.227V94.3009ZM65.8856 86.3266C65.8856 85.9781 65.8117 85.6295 65.7483 85.2704C65.6849 85.6084 65.6638 85.957 65.611 86.3266C65.6058 86.6422 65.53 86.9526 65.3892 87.235C65.2477 87.4973 65.0393 87.7176 64.7851 87.8734C64.531 88.0292 64.2402 88.115 63.9422 88.1222C63.5486 88.1194 63.1627 88.2306 62.8309 88.4424C62.4992 88.6542 62.2358 88.9575 62.0727 89.3157C61.9375 89.6502 61.8902 90.0139 61.9354 90.3719C61.9354 90.7204 62.0093 91.0584 62.0727 91.4281C62.1361 91.0795 62.1572 90.7416 62.21 90.3719C62.2199 90.0531 62.3069 89.7414 62.4635 89.4635C62.6178 89.207 62.8363 88.9951 63.0974 88.8488C63.3586 88.7024 63.6534 88.6267 63.9527 88.6291C64.3471 88.6224 64.7308 88.4996 65.0558 88.276C65.3807 88.0525 65.6326 87.7381 65.78 87.3723C65.9228 87.0174 65.9666 86.6305 65.9067 86.2527L65.8856 86.3266ZM49.5778 121.266C49.5778 120.928 49.5039 120.579 49.4405 120.21C49.3772 120.558 49.356 120.907 49.3138 121.266C49.3069 121.586 49.2275 121.9 49.0814 122.185C48.9408 122.448 48.7326 122.669 48.4783 122.825C48.224 122.98 47.9327 123.066 47.6344 123.072C47.2418 123.067 46.8564 123.178 46.526 123.39C46.1956 123.602 45.9346 123.906 45.7755 124.265C45.6308 124.597 45.5797 124.963 45.6277 125.322C45.6277 125.66 45.7016 126.008 45.765 126.378C45.8283 126.04 45.8495 125.691 45.9023 125.322C45.9109 125.003 45.998 124.691 46.1558 124.413C46.3084 124.155 46.5266 123.942 46.7881 123.796C47.0496 123.649 47.3452 123.574 47.645 123.579C48.0391 123.571 48.4221 123.447 48.7468 123.224C49.0715 123.001 49.3237 122.687 49.4722 122.322C49.5932 121.984 49.6295 121.621 49.5778 121.266ZM82.9327 119.153C82.9327 118.815 82.8588 118.467 82.7954 118.097C82.732 118.435 82.7109 118.784 82.6581 119.153C82.6545 119.472 82.5787 119.787 82.4363 120.072C82.2948 120.335 82.0864 120.555 81.8322 120.711C81.5781 120.867 81.2873 120.952 80.9893 120.959C80.596 120.958 80.2106 121.07 79.8791 121.281C79.5476 121.493 79.284 121.796 79.1198 122.153C78.9846 122.488 78.9373 122.851 78.9825 123.209C78.9825 123.547 79.0564 123.896 79.1198 124.265C79.1832 123.927 79.2043 123.579 79.2571 123.209C79.2658 122.89 79.3528 122.578 79.5106 122.301C79.6632 122.043 79.8814 121.83 80.1429 121.683C80.4045 121.537 80.7001 121.462 80.9998 121.466C81.3939 121.458 81.7769 121.335 82.1017 121.112C82.4264 120.888 82.6786 120.575 82.8271 120.21C82.9712 119.859 83.0222 119.477 82.9749 119.101L82.9327 119.153ZM91.1288 58.6119C91.1288 58.2633 91.0549 57.9254 90.9915 57.5557C90.9281 57.9042 90.907 58.2422 90.8648 58.6119C90.8528 58.9311 90.7736 59.2442 90.6324 59.5308C90.4904 59.7919 90.2816 60.0106 90.0274 60.1646C89.7731 60.3187 89.4826 60.4024 89.1854 60.4074C88.7921 60.406 88.4067 60.5177 88.0752 60.7294C87.7437 60.941 87.4801 61.2436 87.3159 61.6009C87.1807 61.9355 87.1334 62.2991 87.1786 62.6571C87.1786 63.0057 87.2526 63.3437 87.3159 63.7134C87.3793 63.3648 87.4004 63.0268 87.4532 62.6571C87.4619 62.3415 87.549 62.0329 87.7067 61.7594C87.8577 61.4999 88.0755 61.2856 88.3374 61.1388C88.5993 60.9921 88.8958 60.9182 89.196 60.925C89.5894 60.9142 89.9712 60.7898 90.2955 60.5668C90.6197 60.3437 90.8724 60.0316 91.0232 59.6681C91.1442 59.33 91.1805 58.9673 91.1288 58.6119ZM70.5963 71.0751C70.3721 71.2998 70.0966 71.4666 69.7935 71.5609C69.509 71.6487 69.2062 71.6588 68.9165 71.59C68.6267 71.5213 68.3607 71.3763 68.1459 71.1701C68.0158 71.0313 67.862 70.9168 67.6917 70.8322C67.5931 70.98 67.4875 71.1279 67.3748 71.2758C67.5149 71.3517 67.643 71.4478 67.7551 71.5609C68.0394 71.8358 68.3986 72.0206 68.7876 72.092C69.1766 72.1634 69.578 72.1183 69.9414 71.9623C70.2795 71.8083 70.5709 71.5678 70.7864 71.2652C70.9976 70.9906 71.23 70.7265 71.4201 70.4413C71.1349 70.642 70.8709 70.8638 70.5963 71.0751ZM101.892 112.087C101.573 112.077 101.261 111.99 100.983 111.834C100.727 111.679 100.516 111.46 100.37 111.199C100.224 110.938 100.147 110.644 100.149 110.345C100.142 109.95 100.019 109.567 99.7957 109.242C99.5721 108.917 99.2578 108.665 98.8919 108.517C98.5546 108.393 98.191 108.357 97.8357 108.412C97.4872 108.412 97.1386 108.486 96.7795 108.539C97.1175 108.602 97.466 108.634 97.8357 108.676C98.1521 108.684 98.4625 108.764 98.744 108.908C99.0078 109.048 99.2293 109.256 99.3853 109.51C99.5414 109.765 99.6263 110.057 99.6312 110.355C99.6292 110.747 99.7408 111.132 99.9527 111.461C100.164 111.791 100.467 112.053 100.825 112.214C101.157 112.358 101.522 112.409 101.881 112.362C102.229 112.362 102.567 112.288 102.937 112.225C102.578 112.161 102.24 112.13 101.892 112.087ZM83.1017 141.207C83.0977 140.812 82.976 140.427 82.7521 140.101C82.5282 139.776 82.2123 139.525 81.8448 139.38C81.5092 139.248 81.1437 139.211 80.7886 139.274C80.4401 139.274 80.0915 139.337 79.7324 139.401C80.0704 139.464 80.4189 139.496 80.7886 139.538C81.1057 139.541 81.4174 139.621 81.6969 139.77C81.9607 139.91 82.1822 140.118 82.3382 140.373C82.4943 140.627 82.5792 140.919 82.5841 141.217C82.5807 141.445 82.6201 141.67 82.7003 141.883L83.334 142.01C83.1875 141.767 83.1074 141.49 83.1017 141.207ZM64.2062 114.084C63.8874 114.074 63.5758 113.987 63.2979 113.83C63.0399 113.677 62.8268 113.459 62.6803 113.198C62.5338 112.936 62.459 112.641 62.4635 112.341C62.4568 111.946 62.3339 111.563 62.1104 111.238C61.8869 110.913 61.5725 110.661 61.2066 110.514C60.8685 110.393 60.5058 110.356 60.1504 110.408C59.8124 110.408 59.4639 110.482 59.0942 110.545C59.4322 110.598 59.7808 110.63 60.1504 110.672C60.4704 110.679 60.7846 110.758 61.0693 110.904C61.3324 111.045 61.5533 111.253 61.7092 111.508C61.8651 111.762 61.9505 112.053 61.9565 112.351C61.9518 112.641 62.0102 112.929 62.1278 113.194C62.2454 113.459 62.4193 113.695 62.6375 113.886C62.8556 114.077 63.1127 114.218 63.3909 114.3C63.6691 114.381 63.9618 114.401 64.2485 114.358C64.5865 114.305 64.935 114.284 65.3047 114.221C64.8928 114.158 64.5442 114.126 64.2062 114.084ZM89.5551 83.7072C89.238 83.6986 88.9286 83.6076 88.6573 83.4432C88.3994 83.2931 88.1861 83.077 88.0395 82.8171C87.8928 82.5572 87.8181 82.2629 87.8229 81.9645C87.8135 81.5708 87.6896 81.1883 87.4664 80.8639C87.2432 80.5394 86.9303 80.2869 86.566 80.1373C86.2296 80.0092 85.866 79.9692 85.5098 80.0211C85.1613 80.0211 84.8233 80.095 84.4536 80.1584C84.8022 80.2218 85.1402 80.2535 85.5098 80.2957C85.8304 80.2974 86.1458 80.3772 86.4287 80.5281C86.6911 80.6696 86.9114 80.878 87.0672 81.1321C87.223 81.3862 87.3088 81.6771 87.3159 81.9751C87.313 82.366 87.423 82.7494 87.6329 83.0792C87.8428 83.409 88.1435 83.6711 88.4989 83.834C88.832 83.9746 89.1971 84.022 89.5551 83.9713C89.9036 83.9713 90.2522 83.8974 90.6113 83.834C90.2733 83.7812 89.9247 83.7495 89.5762 83.7072H89.5551Z" fill="white"/>
<path d="M100.666 63.8928C97.1597 64.6638 89.9564 60.4179 87.5589 55.3904C87.4004 55.0418 88.1081 51.5458 88.7629 47.2471C89.1537 44.6488 89.534 41.7337 89.6818 39.0509C89.6818 38.5017 106.275 44.0785 106.275 44.0785C105.129 47.3771 104.391 50.8035 104.078 54.2814C104.061 54.6343 104.079 54.9881 104.131 55.3376C104.131 55.3376 104.131 55.4432 104.131 55.5171C104.363 57.7035 104.416 63.1006 100.666 63.8928Z" fill="#EB9481"/>
<path d="M104.099 55.4431C104.099 55.4431 104.099 55.5592 104.099 55.6226C103.523 55.67 102.943 55.67 102.367 55.6226C92.4807 54.8621 90.5584 42.325 90.231 39.1564C93.1989 39.7479 106.232 44.1417 106.232 44.1417C105.081 47.4392 104.34 50.866 104.025 54.3446C104.023 54.7121 104.047 55.0792 104.099 55.4431Z" fill="#263238"/>
<path d="M87.7278 18.0218C85.7528 23.947 88.4989 41.2582 92.6498 45.2189C98.6807 50.9436 108.746 51.7146 113.658 44.4268C118.421 37.3714 114.45 14.8532 109.792 11.2409C102.927 5.92825 90.6218 9.26585 87.7278 18.0218Z" fill="#EB9481"/>
<path d="M104.3 28.7526C104.3 28.7526 104.215 28.816 104.226 28.8688C104.448 30.0306 104.5 31.3931 103.497 31.9423C103.497 31.9423 103.497 32.0162 103.497 32.0057C104.786 31.6255 104.69 29.8194 104.3 28.7526Z" fill="#263238"/>
<path d="M103.043 27.6861C101.142 27.834 101.575 31.6257 103.328 31.4884C105.081 31.3511 104.669 27.5699 103.043 27.6861Z" fill="#263238"/>
<path d="M111.123 28.1719C111.123 28.1719 111.218 28.1719 111.218 28.267C111.323 29.4393 111.63 30.7702 112.728 31.0448V31.1081C111.418 31.0765 111.028 29.302 111.123 28.1719Z" fill="#263238"/>
<path d="M112.031 26.8304C113.901 26.4713 114.481 30.2419 112.749 30.5694C111.017 30.8968 110.436 27.1262 112.031 26.8304Z" fill="#263238"/>
<path d="M101.385 26.1229C101.865 25.9233 102.334 25.6976 102.789 25.4469C103.317 25.2693 103.776 24.9292 104.099 24.4752C104.167 24.3101 104.179 24.1277 104.136 23.9547C104.092 23.7817 103.994 23.6273 103.856 23.5141C103.548 23.3351 103.198 23.2408 102.842 23.2408C102.486 23.2408 102.136 23.3351 101.828 23.5141C101.154 23.7967 100.606 24.3147 100.286 24.9716C100.22 25.1274 100.201 25.2992 100.231 25.4658C100.261 25.6324 100.339 25.7864 100.456 25.9089C100.573 26.0314 100.723 26.117 100.888 26.155C101.053 26.193 101.226 26.1819 101.385 26.1229Z" fill="#263238"/>
<path d="M113.277 24.7497C112.756 24.7076 112.237 24.6335 111.725 24.5279C111.171 24.5327 110.631 24.3504 110.193 24.0103C110.074 23.8752 110.004 23.7044 109.992 23.5247C109.981 23.345 110.029 23.1666 110.13 23.0175C110.37 22.7558 110.676 22.563 111.016 22.459C111.356 22.355 111.717 22.3436 112.063 22.426C112.791 22.4796 113.473 22.8036 113.974 23.3343C114.08 23.463 114.146 23.6193 114.166 23.7847C114.185 23.95 114.156 24.1174 114.082 24.2667C114.009 24.416 113.894 24.541 113.751 24.6266C113.608 24.7123 113.444 24.755 113.277 24.7497Z" fill="#263238"/>
<path d="M109.38 37.2764C108.907 38.0285 108.249 38.6467 107.468 39.0719C107.037 39.2864 106.549 39.3603 106.074 39.2831C105.018 39.1141 104.912 38.2269 105.018 37.3714C105.077 36.9365 105.191 36.5108 105.356 36.104C106.538 36.9133 107.948 37.324 109.38 37.2764Z" fill="#263238"/>
<path d="M107.437 39.0717C107.005 39.2862 106.518 39.3601 106.042 39.2829C104.986 39.114 104.881 38.2267 104.986 37.3712C105.527 37.3362 106.063 37.4853 106.508 37.794C106.953 38.1028 107.28 38.5532 107.437 39.0717Z" fill="#FF9ABB"/>
<path d="M93.2835 27.6965C94.4031 24.3166 92.4174 18.6871 94.0968 17.1345C97.709 13.8286 105.229 20.0496 110.352 20.039C115.474 20.0285 116.942 16.8704 116.013 12.7935C115.083 8.71654 111.64 6.09716 106.064 5.31557C101.192 4.79762 96.2936 6.00084 92.2167 8.71654C92.2167 8.71654 93.4525 6.6992 92.9772 6.07604C92.5019 5.45288 90.0832 7.40685 89.3439 8.18844C88.8075 8.91475 88.4035 9.72994 88.1503 10.5966C87.4113 10.4153 86.6502 10.3406 85.8901 10.3748C84.7816 10.487 83.7487 10.9884 82.975 11.7901C82.8905 12.0858 84.6966 12.3076 85.964 12.3604C85.964 12.3604 83.6298 15.529 83.7037 18.2012C83.7777 20.8734 88.0553 33.6007 89.0587 33.7274C90.3684 33.8964 92.8293 29.0379 93.2835 27.6965Z" fill="#263238"/>
<path d="M86.4287 12.0331C86.4287 12.0331 86.5343 12.0331 86.4921 12.0965C85.2726 13.102 84.355 14.4253 83.841 15.9199C83.3444 17.7314 83.3444 19.643 83.841 21.4544C84.6543 24.9716 86.4076 28.1613 87.9285 31.3933C87.9285 31.4883 87.8123 31.5728 87.7701 31.4778C85.7493 28.1585 84.2563 24.5455 83.3446 20.7679C82.732 17.557 83.4502 13.8498 86.4287 12.0331Z" fill="#263238"/>
<path d="M93.8855 15.8565C95.3914 15.6555 96.9217 15.7415 98.3955 16.11C99.7601 16.5747 101.062 17.2062 102.272 17.99C105.043 19.6534 108.229 20.4992 111.461 20.4298V20.4932C108.498 20.7697 105.52 20.1594 102.905 18.7399C101.608 17.9544 100.265 17.249 98.8814 16.6275C97.2562 16.179 95.569 15.9971 93.8855 16.0889C93.8659 16.0765 93.8497 16.0593 93.8385 16.039C93.8273 16.0187 93.8214 15.9959 93.8214 15.9727C93.8214 15.9495 93.8273 15.9266 93.8385 15.9063C93.8497 15.886 93.8659 15.8689 93.8855 15.8565Z" fill="#263238"/>
<path d="M95.2586 7.30136C97.2605 6.30119 99.3941 5.58997 101.596 5.18896C103.705 4.72842 105.877 4.63553 108.017 4.91435C111.693 5.4847 115.105 7.79778 115.992 11.5684C116.481 13.5003 116.233 15.5453 115.295 17.3036C115.288 17.3161 115.28 17.3272 115.269 17.3364C115.259 17.3455 115.246 17.3525 115.233 17.3569C115.22 17.3613 115.206 17.3631 115.192 17.3621C115.178 17.3611 115.165 17.3574 115.152 17.3511C115.14 17.3449 115.128 17.3362 115.119 17.3257C115.11 17.3152 115.103 17.3029 115.099 17.2897C115.094 17.2764 115.093 17.2625 115.094 17.2485C115.095 17.2346 115.098 17.221 115.105 17.2085C115.874 15.5912 116.099 13.7679 115.745 12.0121C115.391 10.2563 114.477 8.66271 113.14 7.47036C110.098 4.88267 105.863 4.71367 102.103 5.35796C99.7526 5.78971 97.4548 6.46948 95.248 7.38586L95.2586 7.30136Z" fill="#263238"/>
<path d="M91.7414 32.3755C91.7414 32.3755 87.8651 26.7881 85.3303 28.1506C82.7954 29.5131 85.6894 37.6565 88.6573 38.7127C89.0277 38.8825 89.4287 38.9756 89.8361 38.9863C90.2435 38.9971 90.6488 38.9253 91.0278 38.7754C91.4067 38.6254 91.7513 38.4003 92.041 38.1136C92.3306 37.8269 92.5592 37.4846 92.7131 37.1072L91.7414 32.3755Z" fill="#EB9481"/>
<path d="M86.2175 30.4637C86.2175 30.4637 86.2175 30.5271 86.2175 30.5482C88.3299 31.3932 89.3861 33.3366 90.1465 35.3434C90.025 35.1344 89.8597 34.9542 89.6621 34.815C89.4645 34.6758 89.2392 34.5809 89.0015 34.5368C88.7639 34.4927 88.5195 34.5004 88.2851 34.5594C88.0507 34.6184 87.8318 34.7273 87.6433 34.8786C87.6433 34.8786 87.6433 34.9948 87.7067 34.9843C88.0725 34.8699 88.4648 34.8715 88.8297 34.9887C89.1946 35.106 89.5144 35.3331 89.7452 35.6391C90.1318 36.1564 90.4578 36.7163 90.7169 37.3079C90.8225 37.4875 91.1605 37.3924 91.0865 37.1812C91.1182 34.4667 89.0692 30.7489 86.2175 30.4637Z" fill="#263238"/>
<path d="M222.573 9.4664L267.683 74.6129L328.447 88.0478L343.582 97.3952L295.578 160.44L297.363 239.655L222.573 213.482L147.773 239.655L132.638 230.318L149.558 160.44L101.554 97.3952L177.442 74.6129L207.438 0.119019L222.573 9.4664Z" fill="#FFB400"/>
<path opacity="0.1" d="M222.573 9.4664L267.683 74.6129L328.447 88.0478L343.582 97.3952L295.578 160.44L297.363 239.655L222.573 213.482L147.773 239.655L132.638 230.318L149.558 160.44L101.554 97.3952L177.442 74.6129L207.438 0.119019L222.573 9.4664Z" fill="black"/>
<path d="M207.438 0.119019L252.559 65.2655L328.447 88.0478L280.442 151.092L282.227 230.318L207.438 204.135L132.638 230.318L134.423 151.092L86.4182 88.0478L162.317 65.2655L207.438 0.119019Z" fill="#FFB400"/>
<g opacity="0.2">
<path d="M133.609 187.204L134.423 151.092L124.019 137.425L229.481 31.9632L252.548 65.2652L254.851 65.9623L133.609 187.204Z" fill="white"/>
<path d="M319.448 85.344L197.013 207.779L161.894 220.073L301.894 80.0735L319.448 85.344Z" fill="white"/>
<path d="M125.952 76.1762L98.3744 103.754L88.5095 90.8046L93.3469 85.9672L125.952 76.1762Z" fill="white"/>
<path d="M225.816 26.6719L120.143 132.345L119.171 131.067L224.897 25.3411L225.816 26.6719Z" fill="white"/>
<path d="M281.435 195.168L255.601 221.003L253.942 220.422L281.383 192.982L281.435 195.168Z" fill="white"/>
</g>
<path d="M76.9969 67.843C74.3775 85.2914 67.8607 121.361 75.1591 132.208C84.7388 146.445 116.763 156.131 125.16 159.014C128.814 160.271 138.584 136.454 136.577 132.852C134.57 129.251 101.321 115.647 99.0715 113.534C96.8218 111.422 93.9172 82.841 90.9915 68.1176C87.3054 49.6024 79.2149 53.0773 76.9969 67.843Z" fill="#EB9481"/>
<path d="M146.548 141.355C145.238 139.876 145.999 139.179 149.452 139.813C152.906 140.446 166.014 145.843 167.513 141.112C169.013 136.38 150.403 129.018 144.583 128.437C138.764 127.856 129.131 128.891 129.131 128.891C132.469 131.025 140.01 137.035 146.548 141.355Z" fill="#EB9481"/>
<path d="M116.023 155.022C125.635 160.757 137.264 168.488 149.896 168.562C151.299 168.602 152.675 168.171 153.804 167.337C159.465 167.474 161.197 164.844 161.197 164.844C166.478 163.355 167.946 160.408 167.946 160.408C167.946 160.408 174.59 160.493 175.34 156.49C176.164 151.99 166.658 152.751 161.187 149.973C148.628 143.636 132.564 131.067 129.131 128.849L116.023 155.022Z" fill="#EB9481"/>
<path d="M143.347 152.613C146.999 154.513 150.775 156.164 154.649 157.556C158.985 158.812 163.409 159.744 167.883 160.345C167.911 160.345 167.938 160.356 167.958 160.376C167.977 160.396 167.989 160.422 167.989 160.45C167.989 160.479 167.977 160.505 167.958 160.525C167.938 160.545 167.911 160.556 167.883 160.556C159.124 160.267 150.614 157.574 143.284 152.772C143.094 152.613 143.178 152.466 143.347 152.613Z" fill="#263238"/>
<path d="M138.404 159.574C142.133 161.127 148.702 163.799 161.239 164.707C161.239 164.707 161.292 164.781 161.239 164.781C153.285 165.264 145.352 163.523 138.33 159.754C138.109 159.638 138.161 159.469 138.404 159.574Z" fill="#263238"/>
<path d="M135.785 163.397C142.228 165.784 146.59 166.481 153.74 167.305V167.39C145.513 167.295 142.534 166.333 135.679 163.608C135.468 163.513 135.574 163.302 135.785 163.397Z" fill="#263238"/>
<path d="M95.8184 88.1853L70.2372 96.6983C70.2372 96.6983 75.0007 67.431 78.8347 59.2243C83.144 49.9825 86.9252 54.2073 90.3156 63.2801C93.706 72.3529 95.8184 88.1853 95.8184 88.1853Z" fill="#6864ED"/>
<path d="M89.5762 83.707C89.2591 83.6984 88.9497 83.6074 88.6785 83.4429C88.4206 83.2928 88.2073 83.0767 88.0606 82.8168C87.914 82.5569 87.8392 82.2626 87.8441 81.9642C87.8346 81.5705 87.7107 81.1881 87.4876 80.8636C87.2644 80.5391 86.9515 80.2866 86.5872 80.137C86.2508 80.0089 85.8872 79.9689 85.531 80.0208C85.1824 80.0208 84.8445 80.0948 84.4748 80.1581C84.8233 80.2215 85.1613 80.2532 85.531 80.2954C85.8516 80.2972 86.167 80.3769 86.4499 80.5278C86.7122 80.6693 86.9325 80.8777 87.0883 81.1318C87.2442 81.386 87.33 81.6768 87.3371 81.9748C87.3341 82.3657 87.4442 82.7491 87.6541 83.0789C87.864 83.4087 88.1647 83.6708 88.52 83.8337C88.8532 83.9743 89.2182 84.0217 89.5762 83.971C89.9248 83.971 90.2733 83.8971 90.6324 83.8337C90.2733 83.7809 89.9248 83.7492 89.5762 83.707ZM89.1432 60.3966C88.7588 60.4104 88.3855 60.5288 88.0635 60.7391C87.7415 60.9494 87.483 61.2437 87.316 61.5901C87.1807 61.9247 87.1335 62.2883 87.1787 62.6463C87.1787 62.9949 87.2526 63.3329 87.316 63.7025C87.3793 63.354 87.4005 63.016 87.4533 62.6463C87.4619 62.3306 87.549 62.0221 87.7068 61.7485C87.8577 61.489 88.0755 61.2748 88.3375 61.128C88.5994 60.9813 88.8959 60.9074 89.196 60.9141C89.2554 60.9244 89.3162 60.9244 89.3756 60.9141C89.3122 60.724 89.2171 60.5762 89.1432 60.3966Z" fill="white"/>
<path d="M93.3786 83.8865C89.9776 84.5202 80.0388 87.8895 78.3911 88.4282C77.5144 88.7133 74.1029 90.0019 73.2368 90.2765C73.1206 90.2765 73.2368 90.4772 73.3107 90.4455C74.969 89.9174 76.68 89.5583 78.3488 89.0408C80.0176 88.5232 90.2522 85.4708 93.4208 84.0133C93.537 83.9604 93.4525 83.8654 93.3786 83.8865Z" fill="#263238"/>
<path d="M75.4548 70.6734C75.4548 70.5466 75.2963 70.5255 75.2647 70.6734C74.5781 73.1026 73.955 75.5425 73.3741 78.0034C73.3761 76.6817 73.4999 75.3629 73.7437 74.0638C73.7437 74.0004 73.6698 73.9899 73.6487 74.0638C73.3163 75.5572 73.1778 77.0872 73.2368 78.616C72.8354 80.3271 72.4446 82.0381 72.0749 83.7597C71.1455 88.1324 70.1632 92.5051 69.4767 96.92C69.4698 96.9739 69.4769 97.0286 69.4973 97.079C69.5176 97.1294 69.5506 97.1736 69.593 97.2076C69.6355 97.2415 69.6859 97.264 69.7395 97.2728C69.7931 97.2816 69.8481 97.2765 69.8992 97.258C70.7758 96.9305 71.6419 96.582 72.4974 96.2018C72.5819 96.2018 72.5608 96.0011 72.4974 96.0222C71.7369 96.1701 70.987 96.3708 70.2371 96.5609C71.2933 92.3361 72.0432 88.1113 72.941 83.8865C73.8388 79.6617 74.7049 75.0777 75.4548 70.6734Z" fill="#263238"/>
<path d="M94.3185 76.7362C94.2235 75.3103 94.1179 73.895 93.9805 72.5114C93.9805 73.5676 94.065 74.6238 94.1284 75.68C93.6742 73.6415 93.1884 71.6136 92.6075 69.6174C93.0405 72.786 93.6637 75.8595 94.139 78.9859C94.6143 82.1122 95.1952 85.1013 95.7127 88.1537C95.1635 88.4389 94.6037 88.7029 94.0439 88.967C94.0284 88.9795 94.0171 88.9967 94.0119 89.0159C94.0066 89.0352 94.0076 89.0557 94.0146 89.0744C94.0216 89.0931 94.0343 89.1091 94.051 89.1202C94.0676 89.1312 94.0873 89.1367 94.1073 89.136C94.7621 88.9564 95.417 88.7769 96.0824 88.6184C96.1599 88.6079 96.2304 88.5681 96.2795 88.5072C96.3286 88.4463 96.3526 88.369 96.3464 88.291C95.755 84.3936 95.1213 80.5491 94.3185 76.7362Z" fill="#263238"/>
</svg>
