<svg width="260" height="248" viewBox="0 0 260 248" fill="none" xmlns="http://www.w3.org/2000/svg">
<path d="M199.952 16.7422L205.318 24.4736L214.338 27.1881L208.624 34.6765L208.835 44.0873L199.952 40.9715L191.07 44.0873L191.281 34.6765L185.577 27.1881L194.597 24.4736L199.952 16.7422Z" fill="#6864ED"/>
<path d="M15.0326 148.503L20.3875 156.245L29.4075 158.949L23.704 166.437L23.9152 175.848L15.0326 172.743L6.13934 175.848L6.36115 166.437L0.647095 158.949L9.66706 156.245L15.0326 148.503Z" fill="#6864ED"/>
<path d="M80.3058 233.623L82.9886 237.488L87.4986 238.84L84.6468 242.59L84.7524 247.29L80.3058 245.737L75.8592 247.29L75.9648 242.59L73.1237 238.84L77.6231 237.488L80.3058 233.623Z" fill="#6864ED"/>
<path d="M252.16 137.677L254.843 141.553L259.343 142.905L256.491 146.644L256.607 151.355L252.16 149.802L247.714 151.355L247.819 146.644L244.968 142.905L249.478 141.553L252.16 137.677Z" fill="#6864ED"/>
<path d="M169.058 0.613892L171.741 4.47959L176.251 5.83153L173.399 9.58105L173.505 14.2917L169.058 12.7285L164.622 14.2917L164.728 9.58105L161.876 5.83153L166.386 4.47959L169.058 0.613892Z" fill="#6864ED"/>
</svg>
