<svg width="255" height="189" viewBox="0 0 255 189" fill="none" xmlns="http://www.w3.org/2000/svg">
<path d="M1.77277 170.605C4.36046 171.534 80.8189 173.044 83.7023 171.291C84.0297 171.112 85.2761 145.816 85.2761 145.816C85.1916 145.456 86.4696 143.017 88.4447 139.626C93.8947 130.12 104.552 113.073 104.552 113.073L59.1351 99.3427L40.4931 136.679L35.7402 146.185C35.7402 146.185 25.3155 150.252 16.2216 154.318C10.6237 156.811 5.74408 159.103 4.60338 159.947C1.6777 162.261 -0.804363 169.686 1.77277 170.605Z" fill="#FFC4C0"/>
<path d="M1.77267 170.605C4.36036 171.534 80.8188 173.044 83.7022 171.291C84.0296 171.112 85.276 145.816 85.276 145.816C85.1915 145.457 86.4695 143.017 88.4446 139.626L40.5353 136.69L35.7824 146.196C35.7824 146.196 25.3577 150.262 16.2638 154.329C10.6659 156.821 5.78624 159.113 4.64554 159.958C1.67761 162.261 -0.804462 169.686 1.77267 170.605Z" fill="white"/>
<path d="M1.45585 170.89C4.11748 171.83 80.6709 173.14 83.6283 171.344C84.7479 170.668 86.0999 158.881 85.276 145.816L35.9197 145.023C35.9197 145.023 7.32833 157.698 4.30759 159.979C1.28686 162.261 -1.24803 169.95 1.45585 170.89Z" fill="#FFB400"/>
<path opacity="0.1" d="M83.6283 171.344C82.5721 171.999 71.6721 172.242 58.1527 172.242L84.0719 145.837H85.2654C86.0998 158.881 84.7479 170.668 83.6283 171.344Z" fill="black"/>
<path d="M2.60708 167.838C15.4505 167.743 67.2361 168.577 79.9422 169.454C80.0372 169.454 80.0372 169.538 79.9422 169.538C67.2149 169.908 15.4294 168.662 2.60708 168.049C2.33247 168.038 2.33247 167.848 2.60708 167.838Z" fill="#263238"/>
<path d="M9.31399 157.307C10.7418 157.293 12.1569 157.576 13.4696 158.138C14.7823 158.7 15.964 159.528 16.9398 160.571C18.7114 162.434 19.6985 164.907 19.6965 167.478C19.6965 167.552 19.5486 167.552 19.538 167.478C19.1429 164.931 17.9333 162.579 16.0903 160.776C14.2472 158.973 11.8699 157.815 9.31399 157.476C9.29158 157.476 9.27009 157.467 9.25425 157.451C9.2384 157.436 9.22949 157.414 9.22949 157.392C9.22949 157.369 9.2384 157.348 9.25425 157.332C9.27009 157.316 9.29158 157.307 9.31399 157.307Z" fill="#263238"/>
<path d="M31.8638 146.249C37.0075 146.249 42.9328 148.172 46.0486 152.428C46.1754 152.597 45.9324 152.766 45.7846 152.681C41.3325 150.252 36.634 148.305 31.7688 146.872C31.6929 146.853 31.627 146.805 31.5839 146.74C31.5407 146.675 31.5234 146.595 31.5352 146.518C31.5471 146.44 31.5872 146.37 31.6479 146.32C31.7086 146.271 31.7855 146.245 31.8638 146.249Z" fill="#263238"/>
<path d="M27.8714 147.717C33.0151 147.717 38.9404 149.65 42.0562 153.907C42.1829 154.076 41.94 154.245 41.7921 154.16C37.34 151.731 32.6415 149.783 27.7763 148.351C27.7059 148.325 27.6467 148.275 27.6085 148.21C27.5703 148.146 27.5556 148.07 27.5667 147.996C27.5779 147.921 27.6142 147.853 27.6697 147.802C27.7252 147.752 27.7964 147.722 27.8714 147.717Z" fill="#263238"/>
<path d="M23.8896 149.195C29.0228 149.195 34.9481 151.128 38.0638 155.385C38.1906 155.554 37.9477 155.723 37.7998 155.638C33.3477 153.209 28.6492 151.262 23.784 149.829C23.713 149.802 23.6535 149.752 23.6156 149.686C23.5778 149.621 23.5639 149.544 23.5764 149.469C23.5888 149.394 23.6269 149.326 23.684 149.276C23.7411 149.226 23.8138 149.198 23.8896 149.195Z" fill="#263238"/>
<path d="M19.876 150.675C25.0091 150.675 30.9344 152.607 34.0502 156.864C34.1769 157.033 33.934 157.202 33.7861 157.117C29.334 154.688 24.6355 152.741 19.7703 151.308C19.6993 151.282 19.6398 151.231 19.602 151.165C19.5641 151.1 19.5502 151.023 19.5627 150.948C19.5752 150.873 19.6132 150.805 19.6703 150.755C19.7275 150.705 19.8001 150.677 19.876 150.675Z" fill="#263238"/>
<path d="M76.9108 157.212C82.6777 157.328 82.4981 166.285 76.7313 166.169C70.9644 166.053 71.1017 157.096 76.9108 157.212Z" fill="#263238"/>
<path d="M26.8363 139.975C29.5402 143.598 33.7333 145.922 37.3455 148.52C37.4308 148.568 37.5263 148.596 37.6243 148.602C37.7223 148.607 37.8202 148.59 37.9103 148.551C38.0005 148.512 38.0803 148.453 38.1436 148.378C38.2069 148.303 38.2519 148.214 38.275 148.118C38.296 148.124 38.3181 148.125 38.3393 148.12C38.3604 148.114 38.3799 148.104 38.3958 148.089C38.4118 148.074 38.4236 148.056 38.4302 148.035C38.4368 148.014 38.4379 147.992 38.4334 147.971C38.1378 143.254 36.608 138.697 33.9974 134.758C32.4342 132.497 29.1917 130.332 26.5512 132.444C23.9107 134.557 25.252 137.863 26.8363 139.975ZM26.6673 135.75C27.2799 130.174 32.2441 134.546 33.332 136.268C34.0165 137.39 34.6235 138.559 35.1486 139.764C36.2788 142.246 37.0392 144.844 37.9159 147.421C36.2154 146.038 34.4093 144.813 32.6349 143.503C30.5859 141.897 26.3294 138.792 26.6673 135.719V135.75Z" fill="#263238"/>
<path d="M56.7374 145.013C56.3889 141.654 52.576 140.862 49.8616 141.338C45.2186 142.235 40.8943 144.341 37.3245 147.442C37.307 147.454 37.2927 147.47 37.2828 147.488C37.2729 147.507 37.2678 147.527 37.2678 147.548C37.2678 147.569 37.2729 147.59 37.2828 147.608C37.2927 147.626 37.307 147.642 37.3245 147.654C37.2714 147.737 37.2387 147.833 37.2292 147.931C37.2196 148.03 37.2333 148.13 37.2693 148.222C37.3053 148.315 37.3624 148.398 37.4362 148.464C37.51 148.53 37.5983 148.578 37.6941 148.604C42.0774 149.354 46.6718 150.717 51.1501 150.093C53.7801 149.745 57.0648 148.192 56.7374 145.013ZM44.5911 148.393C42.4259 148.066 40.2818 147.643 38.106 147.4C40.5564 146.217 42.9434 144.939 45.4994 143.999C46.7305 143.533 47.9899 143.144 49.2701 142.837C51.2557 142.415 57.857 142.837 54.3082 147.231C52.3542 149.629 47.1682 148.773 44.5911 148.393Z" fill="#263238"/>
<path d="M91.8878 139.415L41 131.736C41 131.736 65.4827 82.94 80.6287 56.461C89.0783 41.7375 112.114 41.0193 123.32 58.6579C138.297 82.2218 149.926 104.307 156.58 116.548L168.135 117.541L165.632 136.415L127.239 145.013C112.526 146.766 102.207 120.583 101.964 121.027C100.073 124.47 91.8878 139.415 91.8878 139.415Z" fill="#37474F"/>
<path d="M101.668 121.143C103.115 118.175 104.245 115.027 105.534 111.996C106.822 108.965 108.027 106.113 109.262 103.166C111.765 97.2199 114.353 91.2946 116.772 85.3165C118.134 81.9578 119.381 78.5568 120.659 75.1664C120.659 75.0925 120.807 75.1664 120.785 75.1664C119.803 78.335 118.779 81.567 117.701 84.7461C117.987 84.1969 118.272 83.6899 118.567 83.109C119.391 81.6515 120.236 80.2045 121.081 78.7575C121.081 78.7047 121.197 78.7575 121.166 78.8103C120.384 80.2678 119.602 81.7149 118.789 83.1513C118.388 83.8589 117.944 84.5666 117.522 85.2637C114.554 94.1768 111.026 102.894 106.96 111.362C105.333 114.689 103.443 117.869 101.816 121.185C101.763 121.344 101.615 121.248 101.668 121.143Z" fill="#263238"/>
<path d="M122.327 78.8526C126.711 86.6896 131.2 94.4738 135.604 102.3C137.833 106.25 140.061 110.211 142.258 114.172C143.314 116.041 144.307 117.932 145.427 119.78C146.349 121.522 147.744 122.968 149.451 123.952C151.475 124.925 153.6 125.673 155.788 126.181C158.27 126.91 160.731 127.691 163.181 128.367C163.287 128.367 163.234 128.579 163.129 128.547C160.9 127.955 158.661 127.491 156.432 126.889C154.379 126.455 152.352 125.908 150.359 125.251C148.598 124.659 147.039 123.583 145.86 122.146C144.656 120.479 143.596 118.712 142.691 116.865C138.29 108.81 133.928 100.737 129.605 92.6465C127.144 88.0521 124.704 83.4365 122.211 78.8526C122.327 78.842 122.327 78.8209 122.327 78.8526Z" fill="#263238"/>
<path d="M93.0391 132.307C89.9867 131.758 86.8603 131.483 83.7868 131.093L74.5345 129.91C68.3768 129.096 47.4323 125.769 45.848 125.241C45.7424 125.241 45.7847 125.041 45.848 125.041C47.3478 125.041 61.0679 126.826 64.1414 127.269C70.2991 128.178 76.4145 129.276 82.5405 130.301C84.2937 130.596 86.0365 130.934 87.8215 131.241C89.6064 131.547 91.3175 131.927 93.1025 132.159C93.1764 132.159 93.1447 132.328 93.0391 132.307Z" fill="#263238"/>
<path d="M59.0188 182.117C59.9905 179.551 108.745 120.636 111.945 119.601C112.315 119.464 132.287 135.032 132.287 135.032C133.09 136.204 172.624 129.624 172.624 129.624L170.913 176.9L99.6192 172.284C99.6192 172.284 89.7331 177.565 80.7132 181.79C75.1681 184.409 70.2568 186.617 68.8732 186.913C65.2927 187.652 58.026 184.673 59.0188 182.117Z" fill="#FFC4C0"/>
<path d="M68.8837 186.944C70.2673 186.648 75.2209 184.452 80.7237 181.822C89.7331 177.597 99.6192 172.316 99.6192 172.316L115.462 173.372L142.068 134.293C136.576 135.021 132.478 135.423 132.214 135.042C132.214 135.042 112.251 119.485 111.882 119.622C108.713 120.678 59.9271 179.572 58.9554 182.139C57.9837 184.705 65.2926 187.652 68.8837 186.944Z" fill="white"/>
<path d="M58.5858 182.181C59.642 179.551 108.576 120.689 111.861 119.622C113.107 119.21 122.919 125.875 132.287 135.032L100.675 172.95C100.675 172.95 72.4431 186.364 68.7147 187.145C64.9863 187.927 57.5718 184.832 58.5858 182.181Z" fill="#FFB400"/>
<path d="M61.6487 183.3C70.0984 173.636 103.263 133.839 110.889 123.646C110.942 123.562 110.889 123.519 110.825 123.593C102.239 132.994 69.3907 173.045 61.4903 183.163C61.3213 183.374 61.4692 183.501 61.6487 183.3Z" fill="#263238"/>
<path d="M73.9852 185.118C74.9256 184.043 75.6334 182.785 76.0642 181.424C76.495 180.062 76.6394 178.627 76.4884 177.207C76.2298 174.652 74.9966 172.295 73.0452 170.626C73.0452 170.574 72.8973 170.679 72.9501 170.743C74.6266 172.702 75.6216 175.152 75.7854 177.726C75.9492 180.299 75.273 182.856 73.8584 185.012C73.8496 185.029 73.8469 185.049 73.8507 185.067C73.8545 185.086 73.8647 185.103 73.8795 185.116C73.8942 185.128 73.9128 185.135 73.932 185.135C73.9512 185.136 73.97 185.129 73.9852 185.118Z" fill="#263238"/>
<path d="M97.1054 175.221C100.454 171.313 102.862 165.577 101.679 160.434C101.626 160.233 101.341 160.307 101.309 160.434C100.25 165.396 98.6598 170.229 96.5667 174.851C96.5177 174.922 96.4991 175.01 96.5149 175.095C96.5308 175.181 96.5798 175.256 96.6512 175.305C96.7227 175.354 96.8106 175.373 96.8958 175.357C96.981 175.341 97.0564 175.292 97.1054 175.221Z" fill="#263238"/>
<path d="M93.3876 177.28C96.7252 173.372 99.1333 167.637 97.9504 162.493C97.9504 162.293 97.6229 162.367 97.5807 162.493C96.52 167.451 94.9301 172.281 92.8383 176.9C92.7879 176.973 92.7685 177.063 92.7843 177.15C92.8002 177.237 92.85 177.314 92.9228 177.365C92.9957 177.415 93.0855 177.434 93.1727 177.419C93.2598 177.403 93.3371 177.353 93.3876 177.28Z" fill="#263238"/>
<path d="M89.6592 179.34C92.9968 175.432 95.4155 169.697 94.222 164.553C94.222 164.352 93.8945 164.426 93.8628 164.553C92.7974 169.51 91.2076 174.339 89.1205 178.959C89.0955 178.995 89.0778 179.035 89.0683 179.077C89.0587 179.119 89.0576 179.163 89.065 179.206C89.0723 179.248 89.088 179.289 89.1111 179.326C89.1343 179.362 89.1644 179.394 89.1997 179.419C89.2351 179.444 89.275 179.462 89.3173 179.471C89.3595 179.481 89.4032 179.482 89.4459 179.474C89.4885 179.467 89.5293 179.451 89.5659 179.428C89.6025 179.405 89.6342 179.375 89.6592 179.34Z" fill="#263238"/>
<path d="M85.9309 181.399C89.279 177.491 91.6872 171.756 90.5042 166.612C90.4514 166.412 90.1662 166.486 90.1345 166.612C89.0666 171.586 87.466 176.43 85.3605 181.061C85.3157 181.137 85.3028 181.227 85.3246 181.312C85.3463 181.398 85.4011 181.471 85.4767 181.515C85.5523 181.56 85.6427 181.573 85.7278 181.551C85.813 181.53 85.8861 181.475 85.9309 181.399Z" fill="#263238"/>
<path d="M118.166 133.955C121.842 129.508 114.945 123.794 111.259 128.241C107.572 132.687 114.491 138.359 118.166 133.955Z" fill="#263238"/>
<path d="M104.098 188.254C107.425 187.631 107.889 183.766 107.203 181.104C105.922 176.553 103.467 172.419 100.084 169.116C100.07 169.1 100.053 169.088 100.034 169.079C100.015 169.07 99.9941 169.066 99.9731 169.066C99.9521 169.066 99.9314 169.07 99.9123 169.079C99.8932 169.088 99.8761 169.1 99.8622 169.116C99.7741 169.072 99.6769 169.049 99.5783 169.049C99.4797 169.048 99.3824 169.071 99.2942 169.115C99.206 169.16 99.1293 169.224 99.0702 169.303C99.0112 169.382 98.9713 169.473 98.9539 169.57C98.5631 173.996 97.5914 178.685 98.5737 183.1C99.144 185.698 100.961 188.835 104.098 188.254ZM99.7355 176.383C99.8728 174.196 100.126 172.031 100.179 169.845C101.634 172.141 102.97 174.51 104.182 176.943C104.755 178.126 105.245 179.347 105.65 180.597C106.242 182.54 106.316 189.163 101.689 185.984C99.144 184.273 99.5665 179.023 99.7355 176.383Z" fill="#263238"/>
<path d="M106.78 158.079C103.39 161.078 101.415 165.472 99.1333 169.253C99.0887 169.342 99.0659 169.44 99.0669 169.54C99.068 169.639 99.0928 169.737 99.1393 169.825C99.1858 169.913 99.2527 169.988 99.3344 170.045C99.416 170.102 99.51 170.138 99.6086 170.151C99.6086 170.236 99.6614 170.32 99.7671 170.299C104.447 169.613 108.863 167.704 112.568 164.764C114.681 163.022 116.592 159.61 114.269 157.16C111.945 154.709 108.755 156.315 106.78 158.079ZM111.005 157.561C116.613 157.709 112.653 163.022 111.005 164.247C109.943 165.028 108.828 165.734 107.667 166.359C105.261 167.61 102.794 168.738 100.274 169.739C101.51 167.933 102.577 166.042 103.749 164.194C105.175 161.976 107.921 157.487 111.016 157.561H111.005Z" fill="#263238"/>
<path d="M160.203 114.922C160.203 114.922 210.784 109.472 230.799 114.869C258.715 122.379 261.904 155.913 240.411 168.672C213.161 184.832 118.705 175.833 118.705 175.833L145.11 131.378C145.11 131.378 184.686 123.984 220.163 126.868L148.585 135.719L160.203 114.922Z" fill="#37474F"/>
<path d="M143.251 134.367C143.278 134.291 143.299 134.213 143.314 134.134C143.326 134.066 143.343 133.999 143.367 133.933L143.494 133.479C143.591 133.167 143.704 132.861 143.832 132.56C143.959 132.254 144.085 131.969 144.233 131.673C144.379 131.385 144.549 131.11 144.74 130.849H144.814H144.877H144.951C149.292 130.152 178.75 126.815 183.154 126.456C187.559 126.096 191.984 125.832 196.41 125.621C205.227 125.162 214.064 125.193 222.878 125.716C223.702 125.716 224.526 125.843 225.349 125.906C225.529 125.906 225.719 125.832 225.899 125.79C226.332 125.695 226.754 125.6 227.187 125.526C227.99 125.389 228.793 125.294 229.595 125.199C231.275 124.987 232.965 124.871 234.633 124.597C234.739 124.597 234.771 124.755 234.633 124.776C232.944 125.104 231.285 125.568 229.595 125.896L228.138 126.17C231.359 126.498 234.581 126.91 237.792 127.374C237.887 127.374 237.887 127.565 237.792 127.554C233.419 127.079 228.993 126.846 224.6 126.741C220.206 126.635 215.865 126.551 211.492 126.635C202.652 126.804 193.801 127.29 184.981 127.924C180.028 128.272 149.968 131.779 145.004 131.789H144.941C144.903 131.917 144.853 132.04 144.793 132.159C144.645 132.455 144.497 132.74 144.339 133.025C144.18 133.31 144.032 133.564 143.853 133.817L143.599 134.208L143.462 134.398C143.41 134.461 143.364 134.528 143.325 134.599C143.346 134.567 143.188 134.483 143.251 134.367Z" fill="#263238"/>
<path d="M132.256 173.055C133.819 170.499 135.171 167.774 136.607 165.112C138.044 162.451 139.491 159.831 140.938 157.17C143.832 151.889 154.151 134.134 155.144 132.877C155.207 132.803 155.323 132.877 155.292 132.993C154.785 134.377 148.31 146.143 146.842 148.762C143.863 154.043 140.758 159.134 137.695 164.299C136.819 165.778 135.921 167.235 135.034 168.703C134.146 170.172 133.206 171.608 132.383 173.118C132.33 173.213 132.203 173.15 132.256 173.055Z" fill="#263238"/>
<path d="M156.749 137.778C159.379 137.208 162.03 136.88 164.713 136.447C167.396 136.014 169.994 135.581 172.687 135.159C177.996 134.3 183.32 133.497 188.657 132.751C199.282 131.261 209.939 130.1 220.639 129.434C226.67 129.064 232.711 128.906 238.753 128.684C238.879 128.684 238.869 128.895 238.753 128.906C227.979 129.133 217.226 129.937 206.539 131.314C195.977 132.518 185.414 133.874 174.852 135.381L165.906 136.669C162.886 137.113 159.854 137.725 156.813 137.979C156.787 137.985 156.76 137.98 156.737 137.967C156.714 137.954 156.697 137.933 156.689 137.907C156.681 137.882 156.683 137.855 156.694 137.831C156.705 137.807 156.725 137.788 156.749 137.778Z" fill="#263238"/>
<path d="M180.133 43.3011C182.056 48.223 184.802 52.7013 186.344 57.8027C187.845 62.4881 188.285 67.4489 187.632 72.3255C184.897 90.1753 161.65 100.843 145.321 95.3507C137.516 92.689 130.714 86.3519 128.644 78.2297C126.109 68.2697 131.421 58.7005 134.653 49.6066C136.437 44.517 137.323 39.1564 137.273 33.7636C137.273 29.0424 136.988 24.2578 137.938 19.5682C138.625 16.2412 140.895 6.56639 153.147 2.66901C161.946 -0.0982388 170.86 4.70747 174.958 13.062C179.721 22.8002 176.321 33.5418 180.133 43.3011Z" fill="#263238"/>
<path d="M138.171 44.7585C134.368 52.9018 129.372 61.2141 127.904 70.2024C126.7 77.6592 128.707 85.718 135.192 90.1435C135.192 90.1435 135.308 90.1435 135.255 90.059C128.443 84.778 127.598 75.6629 129.51 67.8154C131.464 59.7777 136.174 52.7856 138.551 44.9169C138.559 44.8698 138.551 44.8212 138.528 44.7793C138.505 44.7373 138.468 44.7044 138.424 44.686C138.38 44.6676 138.331 44.6648 138.285 44.6779C138.239 44.6911 138.198 44.7195 138.171 44.7585Z" fill="#263238"/>
<path d="M136.491 44.2833C133.608 54.9192 124.82 63.3689 124.26 74.7441C124.26 74.8709 124.461 74.9131 124.472 74.7441C125.211 63.39 135.034 55.3312 136.702 44.2833C136.724 44.1777 136.523 44.1566 136.491 44.2833Z" fill="#263238"/>
<path d="M180.746 43.1208C178.909 39.1839 177.779 34.9545 177.409 30.626C177.398 30.5793 177.372 30.5376 177.334 30.5078C177.297 30.4779 177.25 30.4617 177.203 30.4617C177.155 30.4617 177.108 30.4779 177.071 30.5078C177.033 30.5376 177.007 30.5793 176.997 30.626C175.94 46.3 193.896 58.0872 189.153 74.2788C189.153 74.3844 189.291 74.4689 189.322 74.3527C191.625 67.6564 189.84 60.9706 186.84 54.8024C184.918 50.81 182.594 47.0921 180.746 43.1208Z" fill="#263238"/>
<path d="M177.113 28.2394C177.113 27.9437 176.637 28.0282 176.659 28.3133C177.085 34.1845 178.981 39.8542 182.172 44.8007C183.735 47.2405 185.647 49.4268 187.157 51.8983C188.815 54.6128 190.083 57.5279 191.477 60.3479C191.484 60.3634 191.497 60.3753 191.513 60.3813C191.529 60.3872 191.546 60.3866 191.562 60.3796C191.577 60.3726 191.589 60.3598 191.595 60.3439C191.601 60.3281 191.6 60.3105 191.593 60.2951C189.787 54.8979 186.946 50.5992 183.703 46.0047C180.067 40.721 177.803 34.616 177.113 28.2394Z" fill="#263238"/>
<path d="M142.395 57.1268C118.494 73.2022 99.0911 88.5593 97.0527 99.2798C94.1798 114.119 103.168 118.714 107.287 118.946C118.494 119.601 144.106 81.7046 152.028 64.6998C159.728 48.1808 147.676 53.5885 142.395 57.1268Z" fill="#FFB400"/>
<path opacity="0.1" d="M152.028 64.6995C144.096 81.7043 118.494 119.622 107.287 118.946C104.425 118.788 99.2285 116.527 97.2639 110.201L154.214 54.8134C154.933 56.3872 154.489 59.429 152.028 64.6995Z" fill="black"/>
<path d="M197.592 114.858C197.592 114.858 169.075 118.597 155.249 118.45C142.85 118.323 130.682 112.292 130.682 112.292L136.312 91.6114C136.312 91.6114 130.703 84.461 135.044 76.7084C138.139 71.1951 147.835 59.3867 153 53.8628C164.618 41.3891 174.377 48.4656 177.292 52.4264C188.15 67.5934 197.592 114.858 197.592 114.858Z" fill="#FFB400"/>
<path d="M153.654 89.9851C151.025 89.9012 148.392 90.039 145.786 90.397C144.487 90.5976 143.209 90.8617 141.92 91.1574C141.276 91.3053 140.631 91.4215 139.987 91.5482C139.321 91.6905 138.639 91.7437 137.959 91.7066C137.945 91.7066 137.932 91.7122 137.922 91.7221C137.912 91.732 137.906 91.7455 137.906 91.7595C137.906 91.7735 137.912 91.7869 137.922 91.7968C137.932 91.8067 137.945 91.8123 137.959 91.8123C138.587 91.9301 139.222 92.0007 139.86 92.0235C140.486 92.0219 141.111 91.9725 141.73 91.8756C143.05 91.6855 144.36 91.432 145.68 91.2314C148.342 90.83 150.961 90.4181 153.665 90.228C153.781 90.2174 153.781 89.9851 153.654 89.9851Z" fill="#263238"/>
<path d="M159.696 93.4282C157.61 92.8988 155.494 92.5002 153.359 92.2347C152.302 92.108 151.246 92.0446 150.137 92.0235H148.585C148.014 92.0235 147.444 92.1291 146.874 92.1291C146.86 92.1291 146.846 92.1347 146.836 92.1446C146.826 92.1545 146.821 92.1679 146.821 92.1819C146.821 92.1959 146.826 92.2094 146.836 92.2193C146.846 92.2292 146.86 92.2347 146.874 92.2347C147.402 92.2347 147.93 92.3721 148.468 92.4249L150.074 92.5939L153.242 92.9318C155.355 93.1325 157.52 93.3543 159.664 93.6395C159.791 93.65 159.802 93.4599 159.696 93.4282Z" fill="#263238"/>
<path d="M179.362 56.2716C198.744 73.0758 212.569 96.5446 211.978 111.838C211.386 126.942 206.2 125.22 204.711 125.051C195.617 123.995 176.194 80.9445 170.48 63.5066C164.766 46.0687 174.536 52.1207 179.362 56.2716Z" fill="#FFB400"/>
<path d="M193.093 112.672C192.132 110.718 191.139 108.785 190.199 106.81L187.337 100.948C185.457 97.0299 183.534 93.1326 181.707 89.1824C179.88 85.2322 178.01 81.3242 176.194 77.3635C175.285 75.3778 174.398 73.3922 173.553 71.396C172.708 69.3997 171.863 67.393 171.04 65.3651C172.283 69.547 173.753 73.6582 175.444 77.6803C177.102 81.715 178.919 85.6758 180.725 89.6365C182.531 93.5973 184.538 97.463 186.587 101.318C188.636 105.173 190.791 108.986 193.093 112.672Z" fill="#263238"/>
<path d="M172.951 70.5296C172.608 69.8316 172.223 69.1545 171.8 68.5017C171.589 68.1848 171.388 67.8574 171.166 67.5406C170.945 67.2237 170.733 66.8963 170.469 66.59C170.613 67.3749 170.915 68.1225 171.356 68.7869C171.776 69.4614 172.317 70.0523 172.951 70.5296Z" fill="#263238"/>
<path d="M155.376 62.7239C155.376 62.7239 168.42 52.3098 175.243 52.5527L181.021 57.7069C181.021 57.7069 182.922 58.3407 183.503 57.1366C184.971 54.1581 185.277 46.9548 179.088 42.2653C173.416 37.9665 161.766 38.822 154.014 40.8499C146.567 42.7934 142.448 47.1872 144.73 52.0246C147.011 56.862 155.376 62.7239 155.376 62.7239Z" fill="#FFB400"/>
<path opacity="0.1" d="M154.637 60.443C154.637 60.443 148.595 54.1902 147.729 50.5675C146.863 46.9447 154.066 43.512 158.777 42.1707C166.012 40.0582 170.934 40.5652 174.979 44.4309C179.024 48.2966 154.637 60.443 154.637 60.443Z" fill="black"/>
<path d="M165.157 49.7012C165.04 50.9687 159.611 57.3692 153.971 57.8762C152.134 58.0346 151.479 50.3983 151.479 50.3983L151.215 49.6801L147.497 39.6779L158.555 30.246L160.171 28.9785C160.171 28.9785 161.006 31.788 162.009 35.3158C162.062 35.4742 162.104 35.6432 162.157 35.8122C162.21 35.9812 162.284 36.1924 162.326 36.3825C162.484 36.9001 162.643 37.4387 162.791 37.9668C162.939 38.4949 163.012 38.7695 163.118 39.2026L163.456 40.4806C164.231 43.512 164.799 46.5927 165.157 49.7012Z" fill="#FFC4C0"/>
<path d="M162.009 35.2841C161.361 38.3172 160.059 41.1726 158.195 43.6515C156.331 46.1304 153.949 48.1732 151.215 49.6379L147.497 39.6356L158.555 30.2038L160.171 28.9363C160.171 28.9363 161.006 31.7881 162.009 35.2841Z" fill="#263238"/>
<path d="M136.058 18.1529C128.77 35.4113 138.287 41.7273 142.005 43.2905C145.384 44.7164 157.066 49.1313 166.107 32.7285C175.148 16.3257 169.424 7.47471 161.882 3.80969C154.341 0.144671 143.452 0.905154 136.058 18.1529Z" fill="#FFC4C0"/>
<path d="M140.283 17.1069C140.701 17.2091 141.124 17.2902 141.55 17.3498C141.989 17.4979 142.464 17.4979 142.902 17.3498C143.029 17.2759 143.127 17.1624 143.183 17.0268C143.238 16.8912 143.247 16.7412 143.209 16.5999C143.09 16.3297 142.901 16.0962 142.661 15.9235C142.421 15.7508 142.14 15.6452 141.846 15.6176C141.263 15.468 140.644 15.5434 140.114 15.8288C139.999 15.9007 139.906 16.0044 139.848 16.1274C139.79 16.2504 139.769 16.3875 139.787 16.5223C139.804 16.6572 139.861 16.784 139.949 16.8877C140.037 16.9914 140.153 17.0675 140.283 17.1069Z" fill="#263238"/>
<path d="M152.493 21.237C152.126 21.0157 151.773 20.7724 151.436 20.5083C151.025 20.2231 150.676 20.0435 150.486 19.5577C150.451 19.4164 150.462 19.2676 150.517 19.1328C150.572 18.998 150.668 18.8841 150.792 18.8078C151.067 18.6991 151.366 18.6663 151.657 18.7127C151.949 18.7592 152.223 18.8832 152.45 19.0718C152.961 19.3827 153.337 19.872 153.507 20.4449C153.538 20.5767 153.531 20.7148 153.486 20.8427C153.441 20.9706 153.361 21.0829 153.254 21.1663C153.147 21.2498 153.019 21.3008 152.884 21.3133C152.749 21.3259 152.613 21.2994 152.493 21.237Z" fill="#263238"/>
<path d="M148.564 23.518C148.564 23.518 148.638 23.6131 148.616 23.6659C148.067 24.8172 147.624 26.2219 148.511 27.0775C148.511 27.0775 148.511 27.162 148.511 27.1408C147.264 26.4015 147.867 24.5214 148.564 23.518Z" fill="#263238"/>
<path d="M150.148 22.758C152.091 23.4446 150.581 27.2681 148.785 26.6449C146.99 26.0217 148.521 22.1771 150.148 22.758Z" fill="#263238"/>
<path d="M150.845 23.2329C151.088 23.5815 151.267 24.099 151.658 24.2891C152.049 24.4792 152.609 24.2891 153.074 23.9934C153.074 23.9934 153.137 23.9934 153.074 24.0673C152.799 24.8067 152.218 25.4509 151.394 25.2503C151.04 25.1102 150.75 24.8438 150.58 24.5025C150.41 24.1612 150.373 23.7691 150.475 23.4019C150.518 23.2329 150.718 23.1167 150.845 23.2329Z" fill="#263238"/>
<path d="M141.772 20.5719C141.772 20.519 141.656 20.5718 141.635 20.6458C141.212 21.8498 140.579 23.1595 139.301 23.1384C139.301 23.1384 139.248 23.2018 139.301 23.2124C140.674 23.5292 141.561 21.7865 141.772 20.5719Z" fill="#263238"/>
<path d="M141.181 18.9235C139.322 18.0362 137.695 21.8174 139.417 22.6413C141.138 23.4651 142.744 19.6628 141.181 18.9235Z" fill="#263238"/>
<path d="M140.283 18.8287C139.892 18.9027 139.438 19.135 139.068 19.0083C138.699 18.8816 138.519 18.3218 138.424 17.8148C138.424 17.762 138.371 17.8148 138.35 17.8148C138.012 18.533 137.928 19.3885 138.561 19.8216C139.195 20.2546 139.871 19.8216 140.357 19.1562C140.463 19.0083 140.441 18.7971 140.283 18.8287Z" fill="#263238"/>
<path d="M144.793 33.066C144.423 33.2772 144.032 33.6047 143.568 33.5307C143.112 33.4003 142.687 33.1774 142.321 32.8759C142.321 32.8759 142.237 32.8759 142.258 32.9287C142.372 33.2152 142.562 33.465 142.808 33.6512C143.054 33.8374 143.346 33.9528 143.652 33.9849C143.921 33.9864 144.184 33.9064 144.406 33.7556C144.629 33.6048 144.8 33.3902 144.899 33.1399C144.941 33.0871 144.856 33.0343 144.793 33.066Z" fill="#263238"/>
<path d="M141.107 27.067C141.107 27.067 140.283 28.7992 140.051 29.6547C140.051 29.7392 140.22 29.8448 140.505 29.9504C141.196 30.3229 141.977 30.4954 142.76 30.4488C143.544 30.4021 144.299 30.1381 144.941 29.6864C145.036 29.623 144.941 29.4963 144.856 29.528C143.527 29.9233 142.105 29.8826 140.801 29.4118C140.801 29.1583 142.311 26.4861 142.184 26.4333C141.492 26.2757 140.781 26.2152 140.072 26.2537C141.688 22.5887 143.885 19.2089 145.437 15.5333C145.49 15.4065 145.311 15.3009 145.237 15.4065C142.776 18.9562 140.674 22.742 138.963 26.7079C138.751 27.1832 140.716 27.0987 141.107 27.067Z" fill="#263238"/>
<path d="M140.653 29.6545C140.907 30.5063 141.372 31.2801 142.005 31.9042C142.366 32.2224 142.815 32.4248 143.293 32.4852C144.349 32.6014 144.709 31.7353 144.825 30.922C144.871 30.4867 144.871 30.0476 144.825 29.6123C143.474 30.0725 142.012 30.0873 140.653 29.6545Z" fill="#263238"/>
<path d="M142.005 31.9043C142.366 32.2225 142.815 32.4249 143.293 32.4853C144.349 32.6014 144.708 31.7353 144.825 30.9221C144.313 30.7465 143.756 30.7479 143.245 30.926C142.734 31.1041 142.297 31.4486 142.005 31.9043Z" fill="#FF9ABB"/>
<path d="M164.671 32.0737C161.407 31.6829 162.463 24.0571 162.463 24.0571C162.463 24.0571 149.387 18.1318 151.162 6.68256C147.724 10.4932 143.143 13.0872 138.107 14.076C138.107 14.076 143.568 0.778406 153.876 0.947398C153.876 0.947398 165.494 -0.0137372 170.342 11.3193C175.264 22.9164 166.899 32.3694 164.671 32.0737Z" fill="#263238"/>
<path d="M151.331 5.84811C150.719 7.53765 150.471 9.33713 150.602 11.1291C150.707 12.9329 151.185 14.6953 152.007 16.3045C152.205 16.7102 152.431 17.1019 152.683 17.4769L153.042 18.0472C153.179 18.2373 153.316 18.4063 153.464 18.5753C153.75 18.9239 154.024 19.283 154.33 19.6315C154.637 19.9801 154.975 20.2547 155.302 20.5504L155.799 21.0046L156.348 21.3954L157.404 22.1664C158.175 22.6206 158.957 23.0219 159.749 23.4233C159.052 22.8741 158.312 22.3671 157.636 21.8496L156.643 21.0046L156.158 20.5821C155.999 20.4237 155.862 20.2653 155.714 20.1068L154.827 19.1668C154.552 18.8394 154.309 18.4803 154.045 18.1106L153.654 17.6036L153.327 17.0544C153.099 16.693 152.891 16.3192 152.704 15.9348C151.921 14.4082 151.41 12.757 151.193 11.0552C151.079 10.2012 151.033 9.33938 151.056 8.47804C151.078 7.59551 151.17 6.7161 151.331 5.84811Z" fill="#263238"/>
<path d="M162.548 30.7744C162.548 30.7744 168.23 26.4757 170.311 28.662C172.391 30.8484 166.846 37.9777 163.53 38.1679C163.104 38.2159 162.674 38.1772 162.263 38.0541C161.853 37.931 161.472 37.7261 161.144 37.4516C160.815 37.1772 160.545 36.839 160.351 36.4574C160.157 36.0759 160.042 35.6588 160.013 35.2316L162.548 30.7744Z" fill="#FFC4C0"/>
<path d="M168.674 30.6792V30.7637C166.318 30.9327 164.607 32.5065 163.192 34.2598C163.379 34.0909 163.601 33.9648 163.842 33.89C164.083 33.8153 164.337 33.7938 164.587 33.8269C164.838 33.86 165.077 33.9471 165.291 34.082C165.504 34.2169 165.685 34.3965 165.822 34.6083C165.822 34.6611 165.822 34.735 165.737 34.7033C165.409 34.4685 165.016 34.3423 164.613 34.3423C164.209 34.3423 163.816 34.4685 163.488 34.7033C162.934 35.0902 162.427 35.5404 161.977 36.0447C161.819 36.1926 161.513 35.9814 161.65 35.7913C162.463 33.0663 165.737 30.0244 168.674 30.6792Z" fill="#263238"/>
<path d="M154.637 60.4426C154.637 60.4426 165.6 46.0254 176.141 44.5995L175.243 52.5105C175.243 52.5105 166.456 52.6478 155.376 62.6817L154.637 60.4426Z" fill="#FFB400"/>
<path d="M178.084 52.7113C176.166 52.5523 174.236 52.8043 172.423 53.4506C165.188 55.1511 157.805 61.087 157.805 61.087L155.693 63.0409L155.461 63.2522L155.197 63.1149C151.658 61.1926 148.099 56.7143 147.433 55.8376C149.9 58.2938 152.631 60.4688 155.577 62.3227L155.08 62.4072L157.193 60.4004C157.932 59.7562 166.012 54.4435 172.275 52.9331C172.74 52.8063 173.236 52.7218 173.712 52.6268C174.187 52.5317 174.683 52.4895 175.169 52.4684C176.148 52.3845 177.133 52.4666 178.084 52.7113Z" fill="#263238"/>
<path d="M181.021 57.7077C178.887 56.2381 176.946 54.5065 175.243 52.5534C176.311 53.2794 177.334 54.0695 178.306 54.9193C179.272 55.7876 180.179 56.7191 181.021 57.7077Z" fill="#263238"/>
<path d="M158.238 58.7637C159.115 61.9947 159.712 65.2952 160.023 68.6286C160.256 70.9522 160.023 79.3807 157.404 79.2751C154.785 79.1695 158.587 73.4554 158.978 68.9982C159.369 64.5411 157.921 61.4042 157.573 58.7742L158.238 58.7637Z" fill="#263238"/>
<path d="M150.908 58.6476C149.838 61.5145 149.018 64.4689 148.458 67.4775C148.046 69.5899 147.56 77.2474 149.937 77.3741C152.313 77.5009 149.356 71.9875 149.377 67.8683C149.398 63.7491 150.961 61.0452 151.489 58.6899L150.908 58.6476Z" fill="#263238"/>
<path d="M101.024 77.6915C101.784 70.5515 103.474 60.581 105.946 58.4263C108.417 56.2717 117.976 48.5614 120.733 47.5052C123.489 46.449 135.805 41.3053 138.128 42.5516C139.998 43.555 137.98 48.4452 132.129 50.9484C128.956 52.3832 125.874 54.0093 122.898 55.8175C121.398 56.5252 117.902 61.5527 118.969 63.7074C119.592 64.9642 123.373 66.3584 125.665 65.2283C127.957 64.0982 128.38 59.4931 130.946 57.2328C133.513 54.9726 138.223 55.1204 138.53 56.3456C138.836 57.5708 137.315 58.2468 135.065 62.6195C133.608 65.429 133.724 72.0619 130.386 76.9204C128.697 79.7937 127.184 82.7672 125.855 85.8242L101.024 77.6915Z" fill="#FFC4C0"/>
<path d="M133.386 55.1939C134.237 55.0443 135.028 54.6561 135.667 54.0743C135.925 53.811 136.098 53.4761 136.164 53.1132C136.195 52.9138 136.195 52.7106 136.164 52.5112C136.148 52.3025 136.062 52.1053 135.921 51.9514C135.868 51.9514 135.921 51.8669 135.921 51.9514C135.921 52.0359 136.079 52.1309 136.143 52.226C136.2 52.3093 136.249 52.3977 136.29 52.49C136.365 52.6747 136.405 52.8717 136.407 53.0709C136.407 53.5055 136.258 53.927 135.984 54.2645C135.658 54.6326 135.25 54.9197 134.794 55.103C134.337 55.2863 133.845 55.3608 133.354 55.3207L133.386 55.1939Z" fill="#263238"/>
<path d="M105.946 58.4253C108.058 54.8026 113.656 48.2224 119.307 45.8354C123.12 44.23 136.65 50.2714 136.343 52.838C136.037 55.4046 133.766 55.468 130.386 55.1828C129.151 55.0772 122.592 52.9648 121.525 54.3589C120.004 56.3657 118.208 63.1149 118.208 63.1149L105.946 58.4253Z" fill="#FFC4C0"/>
<path d="M135.984 51.8458C134.252 49.1841 130.587 47.8428 126.954 46.8182V46.9028C127.883 47.1668 133.83 49.67 135.974 51.8986C135.963 51.9197 135.995 51.8775 135.984 51.8458Z" fill="#263238"/>
<path d="M105.946 58.4258C108.058 54.803 113.656 48.2229 119.307 45.8359C123.12 44.2304 133.925 52.1731 133.618 54.7396C133.312 57.3062 130.059 57.6019 126.404 56.4613C125.221 56.1021 121.218 53.4722 120.162 54.8664C118.631 56.8732 114.881 61.8585 114.881 61.8585L105.946 58.4258Z" fill="#FFC4C0"/>
<path d="M117.047 58.7742C117.385 58.2038 117.511 58.0032 117.86 57.4434C118.208 56.8836 118.578 56.3238 118.969 55.7851C119.274 55.2885 119.664 54.8488 120.12 54.486C120.595 54.1963 121.15 54.0668 121.704 54.1163C122.956 54.3383 124.147 54.8204 125.2 55.5316C126.415 56.1653 128.908 57.1899 130.788 56.9364C131.303 56.8886 131.803 56.7339 132.256 56.4822C132.603 56.3145 132.902 56.0598 133.122 55.7429C133.893 54.3276 132.826 52.775 131.749 51.6976C129.626 49.7366 127.169 48.1731 124.493 47.082C123.859 46.7968 123.215 46.5222 122.571 46.2582C121.854 45.9015 121.068 45.7034 120.268 45.6773C118.958 45.6773 116.856 47.1137 116.202 47.5362C116.202 47.5362 116.117 47.4834 116.202 47.4517C116.983 46.9236 118.927 45.2336 121.039 45.2653C121.815 45.3569 122.569 45.582 123.268 45.9307C124.007 46.2265 124.746 46.5434 125.475 46.8814C126.897 47.5245 128.267 48.2766 129.573 49.131C130.88 49.9153 132.033 50.9319 132.974 52.1306C133.368 52.6667 133.608 53.3 133.67 53.9624C133.731 54.6248 133.611 55.2914 133.323 55.8907C133.056 56.272 132.708 56.5898 132.305 56.8217C131.902 57.0535 131.452 57.1936 130.988 57.2321C130.439 57.3113 129.88 57.3113 129.33 57.2321C128.091 57.0052 126.87 56.6911 125.676 56.2921C124.514 55.8696 123.458 55.1408 122.264 54.8134C121.984 54.7277 121.689 54.6986 121.397 54.7276C121.105 54.7566 120.822 54.8432 120.564 54.9824C120.088 55.3206 119.668 55.7303 119.317 56.197C118.557 56.999 117.871 57.8688 117.268 58.7953C117.047 59.1438 116.909 59.0171 117.047 58.7742Z" fill="#263238"/>
<path d="M104.372 61.5734C105.143 59.8518 106.315 52.8597 107.541 50.6839C108.766 48.5082 114.702 40.9352 117.575 41.1781C121.176 41.4633 117.649 48.0646 115.853 50.8001C114.057 53.5357 114.522 58.0457 114.522 58.0457L104.372 61.5734Z" fill="#FFC4C0"/>
<path d="M114.628 58.785C114.55 60.5231 114.913 62.2526 115.684 63.8125C116.04 64.6034 116.449 65.3692 116.909 66.1044C117.383 66.8427 117.905 67.5484 118.472 68.2168C119.558 69.4669 120.484 70.847 121.229 72.3255C121.931 73.8488 122.446 75.4519 122.761 77.0995C122.825 75.37 122.553 73.6445 121.958 72.0192C121.324 70.3936 120.421 68.8867 119.286 67.562C118.205 66.296 117.257 64.9228 116.455 63.4639C115.588 62.0177 114.97 60.436 114.628 58.785Z" fill="#263238"/>
<path d="M108.47 118.291C115.431 117.045 119.507 105.131 126.616 84.1864C127.862 80.5109 108.597 59.0805 106.252 62.5026C103.295 66.8119 95.8592 90.4392 95.236 96.8186C94.0319 109.398 100.337 119.749 108.47 118.291Z" fill="#FFC4C0"/>
<path d="M122.887 95.868L99.3657 74.9025C99.3657 74.9025 93.7678 94.0619 94.7078 101.952C95.6479 109.842 98.7953 118.735 108.343 118.851C115.494 118.883 122.887 95.868 122.887 95.868Z" fill="#FFB400"/>
<path d="M116.244 111.363C117.004 110.18 117.68 108.934 118.356 107.687C119.032 106.441 119.613 105.163 120.194 103.885C120.775 102.607 121.314 101.287 121.768 99.9559C122.268 98.6298 122.65 97.262 122.908 95.8684C122.37 97.1675 121.789 98.4456 121.208 99.7236L119.476 103.558C118.916 104.846 118.335 106.124 117.807 107.434C117.279 108.744 116.719 110.032 116.244 111.363Z" fill="#263238"/>
<path d="M118.187 99.9025C117.047 98.7407 115.79 97.6844 114.575 96.5966C113.36 95.5087 112.135 94.4842 110.899 93.428C108.417 91.3155 105.935 89.2031 103.422 87.0907C102.735 86.531 102.038 85.9606 101.309 85.4114C100.58 84.8622 99.7354 84.3552 98.996 83.7215C98.9432 83.6686 98.8693 83.7215 98.9221 83.806C99.5241 84.3341 100.052 84.9572 100.644 85.4959C101.235 86.0346 101.869 86.6155 102.492 87.1541C103.728 88.2103 104.953 89.2665 106.199 90.3227C108.671 92.4351 111.153 94.5475 113.698 96.586C115.135 97.7373 116.55 98.9413 118.05 100.008C118.064 100.026 118.085 100.038 118.107 100.041C118.13 100.044 118.153 100.038 118.171 100.024C118.19 100.01 118.201 99.9893 118.204 99.9665C118.207 99.9437 118.201 99.9207 118.187 99.9025Z" fill="#263238"/>
<path d="M148.141 59.1439L157.647 88.6436C157.757 88.8027 157.822 88.989 157.833 89.1822C157.845 89.3755 157.803 89.5682 157.713 89.7393C157.622 89.9105 157.487 90.0534 157.32 90.1526C157.154 90.2519 156.964 90.3035 156.77 90.3018L141.286 91.3581C140.812 91.3534 140.348 91.2139 139.95 90.9558C139.552 90.6977 139.235 90.3317 139.037 89.9005L129.531 60.4114C129.151 59.5453 129.531 58.8059 130.408 58.7425L145.881 57.6863C146.356 57.6928 146.821 57.8329 147.22 58.0906C147.62 58.3484 147.939 58.7134 148.141 59.1439Z" fill="#37474F"/>
<path d="M146.303 59.271L155.809 88.7707C155.92 88.9297 155.984 89.1161 155.996 89.3093C156.007 89.5026 155.966 89.6953 155.875 89.8664C155.785 90.0375 155.649 90.1805 155.483 90.2797C155.316 90.3789 155.126 90.4305 154.932 90.4289L139.449 91.4851C138.974 91.4804 138.51 91.3409 138.112 91.0829C137.714 90.8248 137.397 90.4588 137.199 90.0276L127.693 60.5279C127.583 60.3688 127.518 60.1825 127.507 59.9893C127.495 59.796 127.537 59.6033 127.627 59.4321C127.718 59.261 127.853 59.118 128.02 59.0188C128.186 58.9196 128.376 58.868 128.57 58.8696L144.043 57.8134C144.519 57.8199 144.983 57.96 145.382 58.2177C145.782 58.4755 146.101 58.8405 146.303 59.271Z" fill="#455A64"/>
<path d="M142.142 60.9183C142.164 61.1785 142.262 61.4265 142.425 61.6307C142.588 61.835 142.808 61.9864 143.056 62.0658C143.305 62.1451 143.572 62.1489 143.823 62.0767C144.074 62.0044 144.298 61.8593 144.466 61.6598C144.635 61.4602 144.74 61.2152 144.77 60.9556C144.799 60.6961 144.75 60.4337 144.63 60.2017C144.51 59.9697 144.324 59.7785 144.096 59.6522C143.867 59.5259 143.606 59.4703 143.346 59.4924C142.997 59.522 142.675 59.6888 142.449 59.9561C142.223 60.2235 142.113 60.5696 142.142 60.9183Z" fill="#263238"/>
<path d="M206.824 124.882C200.064 125.812 191.635 120.562 169.793 104.614C166.773 102.417 176.606 76.8884 179.954 79.0853C184.179 81.842 199.948 93.4602 200.993 94.4531C209.844 102.85 211.439 124.259 206.824 124.882Z" fill="#FFC4C0"/>
<path d="M187.812 86.8058C187.812 86.8058 181.591 78.071 176.901 74.5011C171.934 70.9051 166.167 68.5707 160.097 67.6991C153.549 66.738 137.062 68.9349 136.861 73.7934C136.681 78.1978 153.433 75.1031 153.433 75.1031C153.433 75.1031 135.836 75.4411 136.597 80.7749C137.357 86.1087 156.591 81.4086 156.591 81.4086C156.591 81.4086 138.519 82.1691 140.177 87.5452C141.424 91.6115 159.083 88.3373 159.083 88.3373C159.083 88.3373 143.557 89.0978 144.666 93.3331C145.881 98.0121 162.379 96.0159 162.379 96.0159C167.005 106.303 173.627 109.208 178.444 110.803C179.595 111.194 187.812 86.8058 187.812 86.8058Z" fill="#FFC4C0"/>
<path d="M159.485 74.5963C157.372 74.5963 155.323 74.5118 153.264 74.6597C151.204 74.8075 149.134 75.0293 147.095 75.3673C144.418 75.7697 141.795 76.4785 139.28 77.4797C143.874 76.0538 151.257 75.3673 153.316 75.2511C155.376 75.135 157.436 74.8498 159.495 74.7019C159.548 74.6702 159.537 74.5963 159.485 74.5963Z" fill="#263238"/>
<path d="M160.161 82.0323C157.52 82.1062 154.88 82.0323 152.25 82.2647C149.62 82.497 147.148 82.8561 144.539 83.2258C144.339 83.2258 144.413 83.3525 144.624 83.3314C147.243 83.0673 149.683 83.0251 152.303 82.7928C154.922 82.5604 157.584 82.233 160.171 82.0957C160.203 82.0957 160.203 82.0323 160.161 82.0323Z" fill="#263238"/>
<path d="M161.882 88.3163C157.818 88.3273 153.766 88.7555 149.789 89.5943C149.588 89.5943 149.704 89.7528 149.916 89.7211C153.919 89.2247 157.056 88.8022 161.851 88.4642C161.956 88.4537 161.967 88.3269 161.882 88.3163Z" fill="#263238"/>
<path d="M187.812 83.331L179.204 114.7C179.204 114.7 202.293 128.293 207.394 124.692C212.495 121.09 209.158 102.987 203.391 96.0794C200.962 93.2065 187.812 83.331 187.812 83.331Z" fill="#FFB400"/>
<path d="M187.506 84.3766L187.844 83.3204H187.759C189.935 85.1053 192.121 86.8692 194.287 88.6647C196.452 90.4603 198.606 92.2558 200.624 94.157C201.662 95.0786 202.639 96.0665 203.549 97.1143C204.42 98.1908 205.197 99.3392 205.873 100.547C207.211 103.01 208.152 105.669 208.661 108.426C208.438 105.588 207.671 102.82 206.401 100.272C205.767 98.9907 204.999 97.7799 204.109 96.6602C203.192 95.5688 202.204 94.5386 201.152 93.5761C199.039 91.6749 196.864 89.9005 194.646 88.1683C192.428 86.4361 190.125 84.799 187.78 83.2358H187.706V83.3098L187.506 84.3766Z" fill="#263238"/>
<path d="M192.85 91.1147C192.322 92.6567 191.921 94.2833 191.488 95.8148C191.055 97.3463 190.632 98.9834 190.231 100.536C189.428 103.705 188.646 106.873 187.907 110.042C187.706 110.918 187.506 111.785 187.316 112.651C187.126 113.517 187.03 114.541 186.819 115.471C186.819 115.545 186.914 115.576 186.935 115.471C187.147 114.7 187.464 113.95 187.696 113.189C187.928 112.429 188.139 111.584 188.351 110.781C188.773 109.207 189.185 107.613 189.586 106.049C190.389 102.881 191.181 99.7122 191.878 96.5436C192.269 94.7374 192.723 92.9419 193.009 91.1252C193.014 91.1128 193.016 91.0992 193.016 91.0857C193.015 91.0721 193.011 91.059 193.004 91.0474C192.997 91.0357 192.987 91.026 192.975 91.0189C192.964 91.0118 192.95 91.0077 192.937 91.0068C192.923 91.0059 192.91 91.0083 192.897 91.0137C192.885 91.0192 192.874 91.0276 192.865 91.0381C192.857 91.0487 192.851 91.0612 192.848 91.0745C192.846 91.0879 192.846 91.1016 192.85 91.1147Z" fill="#263238"/>
<path d="M179.943 111.954C179.878 112.925 179.737 113.889 179.521 114.837L179.362 114.446C181.111 115.391 182.779 116.48 184.348 117.7C182.429 117.116 180.62 116.22 178.993 115.049L178.76 114.89C179.079 113.882 179.474 112.901 179.943 111.954Z" fill="#263238"/>
</svg>
