<svg width="66" height="66" viewBox="0 0 66 66" fill="none" xmlns="http://www.w3.org/2000/svg">
<g filter="url(#filter0_d_33_1391)">
<circle cx="33" cy="31" r="28" fill="#33CC79"/>
</g>
<path d="M34.25 18H22.85C21.2759 18 20 19.2759 20 20.85V41.75C20 43.3241 21.2759 44.6 22.85 44.6H34.25C35.8241 44.6 37.1 43.3241 37.1 41.75V20.85C37.1 19.2759 35.8241 18 34.25 18ZM36.15 41.275C36.15 42.5844 35.0849 43.65 33.775 43.65H23.325C22.0156 43.65 20.95 42.5844 20.95 41.275V21.325C20.95 20.0156 22.0156 18.95 23.325 18.95H33.775C35.0851 18.95 36.15 20.0156 36.15 21.325V41.275Z" fill="white"/>
<path d="M33.775 19.8999H30.45C30.45 20.9491 29.5993 21.7999 28.55 21.7999C27.5008 21.7999 26.65 20.9491 26.65 19.8999H23.325C22.5391 19.8999 21.9 20.539 21.9 21.3249V41.2749C21.9 42.0608 22.5391 42.6999 23.325 42.6999H33.775C34.5609 42.6999 35.2 42.0608 35.2 41.2749V21.3249C35.2 20.539 34.5609 19.8999 33.775 19.8999ZM27.4377 34.2672C27.6353 34.4402 27.6553 34.7403 27.4827 34.9375C27.3887 35.0452 27.2573 35.0999 27.1251 35.0999C27.0138 35.0999 26.9025 35.0613 26.8126 34.9826L23.0126 31.6576C22.9091 31.5671 22.8501 31.4367 22.8501 31.2999C22.8501 31.1631 22.9091 31.0327 23.0126 30.9422L26.8126 27.6172C27.0102 27.4441 27.3098 27.4632 27.4829 27.6621C27.6555 27.8593 27.6356 28.1594 27.4379 28.3325L24.0466 31.2999L27.4377 34.2672ZM34.0877 31.6576L30.2877 34.9826C30.1978 35.0613 30.0865 35.0999 29.9751 35.0999C29.843 35.0999 29.7116 35.0452 29.6174 34.9375C29.4448 34.7403 29.4647 34.4402 29.6624 34.2672L33.0538 31.2999L29.6624 28.3326C29.4647 28.1596 29.4448 27.8596 29.6174 27.6623C29.7905 27.4634 30.0901 27.4443 30.2877 27.6174L34.0877 30.9424C34.1912 31.0327 34.2502 31.1631 34.2502 31.2999C34.2502 31.4367 34.1912 31.5671 34.0877 31.6576L34.0877 31.6576Z" fill="white"/>
<path d="M46.1169 33.1024L44.7782 32.3472C44.8302 31.9937 44.856 31.6441 44.856 31.3003C44.856 30.9566 44.8299 30.6069 44.778 30.2534L46.1167 29.4983C46.3393 29.3726 46.5018 29.1629 46.5675 28.9167C46.6335 28.6698 46.598 28.4073 46.4683 28.1874L44.5237 24.8967C44.2612 24.4523 43.6917 24.2983 43.2389 24.5526L41.8769 25.3213C41.3027 24.8796 40.6663 24.5189 39.9945 24.2525L39.9947 22.7503C39.9947 22.2257 39.5697 21.8003 39.0447 21.8003H38.0502V27.5003C40.1489 27.5003 41.8502 29.2016 41.8502 31.3003C41.8502 33.399 40.1489 35.1003 38.0502 35.1003V40.8003H39.0447C39.5697 40.8003 39.9947 40.3749 39.9947 39.8503V38.3488C40.6665 38.082 41.3029 37.7207 41.8771 37.2796L43.2391 38.0483C43.6919 38.303 44.2614 38.149 44.524 37.7041L46.4685 34.4135C46.5985 34.1936 46.6337 33.9311 46.5677 33.6842C46.5018 33.4378 46.3395 33.2281 46.1169 33.1023V33.1024Z" fill="white"/>
<defs>
<filter id="filter0_d_33_1391" x="0" y="0" width="66" height="66" filterUnits="userSpaceOnUse" color-interpolation-filters="sRGB">
<feFlood flood-opacity="0" result="BackgroundImageFix"/>
<feColorMatrix in="SourceAlpha" type="matrix" values="0 0 0 0 0 0 0 0 0 0 0 0 0 0 0 0 0 0 127 0" result="hardAlpha"/>
<feOffset dy="2"/>
<feGaussianBlur stdDeviation="2.5"/>
<feComposite in2="hardAlpha" operator="out"/>
<feColorMatrix type="matrix" values="0 0 0 0 0.362813 0 0 0 0 0.5375 0 0 0 0 0.442735 0 0 0 0.53 0"/>
<feBlend mode="normal" in2="BackgroundImageFix" result="effect1_dropShadow_33_1391"/>
<feBlend mode="normal" in="SourceGraphic" in2="effect1_dropShadow_33_1391" result="shape"/>
</filter>
</defs>
</svg>
