<svg width="66" height="66" viewBox="0 0 66 66" fill="none" xmlns="http://www.w3.org/2000/svg">
<g filter="url(#filter0_d_33_1410)">
<circle cx="33" cy="31" r="28" fill="#33CC79"/>
</g>
<path fill-rule="evenodd" clip-rule="evenodd" d="M37.9721 21.2633L39.774 19.8731C40.1771 19.5581 40.7231 19.5118 41.0844 19.8731L43.2977 22.0864C43.659 22.4476 43.6127 22.9937 43.2977 23.3968L41.9076 25.1987C42.3738 26.0051 42.7392 26.8787 42.9869 27.8028L45.2467 28.0926C45.7506 28.1555 46.1706 28.5084 46.1706 29.0209V32.1501C46.1706 32.6625 45.7506 33.0153 45.2467 33.0784L42.9869 33.3682C42.739 34.2921 42.3736 35.1659 41.9076 35.9723L43.2977 37.7742C43.6127 38.1773 43.659 38.7233 43.2977 39.0846L41.0844 41.2979C40.7232 41.6592 40.1772 41.6129 39.774 41.2979L37.9721 39.9077C37.1657 40.374 36.2921 40.7394 35.368 40.9871L35.0782 43.2469C35.0153 43.7508 34.6624 44.1708 34.1499 44.1708H31.0208C30.5083 44.1708 30.1556 43.7508 30.0924 43.2469L29.8026 40.9871C28.8787 40.7392 28.0049 40.3738 27.1985 39.9077L25.3966 41.2979C24.9935 41.6129 24.4475 41.6592 24.0862 41.2979L21.8729 39.0846C21.5116 38.7234 21.5579 38.1773 21.8729 37.7742L23.2631 35.9723C22.7968 35.1659 22.4314 34.2923 22.1837 33.3682L19.924 33.0784C19.42 33.0155 19 32.6626 19 32.1501V29.0209C19 28.5085 19.42 28.1557 19.924 28.0926L22.1837 27.8028C22.4316 26.8789 22.797 26.0051 23.2631 25.1987L21.8729 23.3968C21.5579 22.9937 21.5116 22.4477 21.8729 22.0864L24.0862 19.8731C24.4474 19.5118 24.9935 19.5581 25.3966 19.8731L27.1985 21.2633C28.0049 20.797 28.8785 20.4316 29.8026 20.1839L30.0924 17.9241L30.0966 17.9031L30.1008 17.8779L30.1049 17.8569L30.1091 17.8317L30.1133 17.8106L30.1174 17.7854L30.1258 17.7644L30.13 17.7392L30.1341 17.7181L30.1508 17.6761L30.1591 17.6508L30.2008 17.5457L30.2133 17.5288L30.2217 17.5077L30.2342 17.4867L30.2425 17.4657L30.255 17.4488L30.2676 17.4278L30.2801 17.4109L30.2926 17.3899L30.3426 17.3224L30.3595 17.3055L30.372 17.2887L30.3888 17.2718L30.4014 17.2549L30.4182 17.2424L30.4645 17.1962L30.4982 17.1711L30.5192 17.1586L30.5361 17.1461C30.5486 17.1378 30.5571 17.1293 30.5697 17.1251L30.5907 17.1126L30.6076 17.1001L30.6286 17.0917L30.6455 17.0834L30.6665 17.0751L30.6875 17.0625L30.7086 17.0584L30.7255 17.05L30.7675 17.0334L30.7927 17.0292L30.8348 17.0208V17.0167H30.8558V17.0125C30.8727 17.0125 30.8852 17.0083 30.9021 17.0083C30.9146 17.0042 30.9315 17.0042 30.9483 17.0042L30.9694 17H34.1489C34.6614 17 35.0141 17.42 35.0772 17.924L35.367 20.1837C36.291 20.4316 37.1647 20.797 37.9712 21.2631L37.9721 21.2633ZM31.8902 35.5018L32.5833 36.3124L33.2806 35.5018L32.8143 31.5327H32.3816L31.8902 35.5018ZM37.4258 34.9978C37.4258 34.9978 37.4258 33.3849 37.2873 32.3181C37.1529 31.2513 35.0906 30.8229 34.3219 30.5246C33.8011 30.3229 33.7886 29.8735 33.7886 29.8735C33.0702 30.7556 32.1086 30.7598 31.3777 29.8652C31.3777 29.8652 31.4365 30.2935 30.8486 30.5246C30.08 30.8227 28.0175 31.2513 27.8832 32.3181C27.7446 33.385 27.7446 34.9978 27.7446 34.9978H31.5079L32.0456 31.4697C32.0708 31.3102 32.2135 31.2556 32.3775 31.2556H32.8396C33.0033 31.2556 33.1293 31.3102 33.1504 31.4739L33.6083 34.9978H37.4262L37.4258 34.9978ZM30.5627 26.9295C30.5627 27.883 30.7433 28.4122 31.3062 29.332C31.7473 29.8991 32.1714 30.1553 32.5831 30.1216C32.9989 30.1551 33.423 29.8989 33.8641 29.332C34.427 28.4122 34.6076 27.8829 34.6076 26.9295C34.6076 24.17 30.5629 24.17 30.5629 26.9295H30.5627ZM32.5829 22.6117C36.9889 22.6117 40.559 26.1818 40.559 30.5834C40.559 34.9894 36.9889 38.5596 32.5829 38.5596C28.1811 38.5596 24.6112 34.9894 24.6112 30.5834C24.6112 26.1816 28.1813 22.6117 32.5829 22.6117Z" fill="white"/>
<path d="M19.0144 44.2332C19.0132 44.2337 19.0123 44.2339 19.0113 44.2339H19.0091C19.0064 44.2339 19.0045 44.2336 19.003 44.2324C19.0015 44.2309 19.0007 44.229 19.0007 44.2264C19.0007 44.2239 19.0015 44.2218 19.003 44.2203C19.0045 44.2188 19.0064 44.218 19.0091 44.218C19.01 44.218 19.0108 44.2184 19.0113 44.2188C19.0123 44.2188 19.0132 44.2192 19.0144 44.2195V44.2226C19.0132 44.2222 19.0123 44.2218 19.0113 44.2218C19.0108 44.2214 19.0102 44.2211 19.0098 44.2211C19.0083 44.2211 19.007 44.2216 19.006 44.2226C19.0055 44.2237 19.0053 44.2248 19.0053 44.2264C19.0053 44.2279 19.0055 44.2292 19.006 44.2301C19.007 44.2313 19.0083 44.2317 19.0098 44.2317H19.0113C19.0123 44.2313 19.0132 44.2307 19.0144 44.2301V44.2332Z" fill="white"/>
<path d="M19.0252 44.2257H19.0244C19.0244 44.2253 19.024 44.225 19.0237 44.225C19.0225 44.225 19.0218 44.2255 19.0214 44.2265C19.0208 44.227 19.0206 44.2278 19.0206 44.2287V44.2341H19.0168V44.2227H19.0206V44.2242L19.0222 44.2227C19.0225 44.2223 19.0233 44.2219 19.0244 44.2219H19.0252V44.2257Z" fill="white"/>
<path d="M19.0387 44.228V44.2295H19.0304C19.0304 44.2306 19.0306 44.2314 19.0312 44.2318H19.0334H19.0357C19.0367 44.2314 19.0376 44.2308 19.0387 44.2303V44.2333C19.0376 44.2339 19.0367 44.2341 19.0357 44.2341H19.0334C19.0313 44.2341 19.0296 44.2337 19.0281 44.2325C19.027 44.2316 19.0266 44.2303 19.0266 44.2287C19.0266 44.2269 19.027 44.2253 19.0281 44.2242C19.0296 44.2227 19.0313 44.2219 19.0334 44.2219C19.035 44.2219 19.0361 44.2227 19.0372 44.2242C19.0382 44.2253 19.0387 44.2265 19.0387 44.228H19.0387ZM19.0357 44.2272C19.0357 44.2263 19.0353 44.2257 19.035 44.2257C19.0344 44.2253 19.0338 44.225 19.0334 44.225C19.0323 44.225 19.0315 44.2253 19.0312 44.2257C19.0306 44.2257 19.0304 44.2263 19.0304 44.2272H19.0357Z" fill="white"/>
<path d="M19.0468 44.2287C19.0463 44.2287 19.0457 44.2291 19.0453 44.2295C19.0448 44.2295 19.0446 44.2299 19.0446 44.2303V44.2318H19.0461C19.047 44.2318 19.0478 44.2316 19.0484 44.231C19.0487 44.2306 19.0491 44.2301 19.0491 44.2295V44.2287H19.0468ZM19.0521 44.2272V44.2341H19.0491V44.2325C19.0485 44.2331 19.0478 44.2337 19.0468 44.2341H19.0446C19.0434 44.2341 19.0425 44.2339 19.0415 44.2333C19.041 44.2329 19.0408 44.2318 19.0408 44.2303C19.0408 44.2293 19.0412 44.2286 19.0423 44.228C19.0432 44.227 19.0448 44.2265 19.0468 44.2265H19.0491C19.0491 44.2261 19.0487 44.2257 19.0484 44.2257C19.0478 44.2253 19.047 44.225 19.0461 44.225H19.043C19.0425 44.225 19.0423 44.2253 19.0423 44.2257V44.2227H19.0438C19.0448 44.2223 19.0457 44.2219 19.0468 44.2219C19.0487 44.2219 19.0501 44.2225 19.0506 44.2234C19.0516 44.2246 19.0521 44.2257 19.0521 44.2272V44.2272Z" fill="white"/>
<path d="M19.0603 44.2197V44.2228H19.0641V44.225H19.0603V44.2303V44.2319H19.0618H19.0633V44.2341H19.0603C19.0587 44.2341 19.0576 44.2339 19.0572 44.2334C19.0567 44.2324 19.0565 44.2315 19.0565 44.2303V44.225H19.0542V44.2228H19.0565V44.2197H19.0603Z" fill="white"/>
<path d="M19.0772 44.228V44.2295H19.0689C19.0689 44.2306 19.069 44.2314 19.0696 44.2318H19.0719H19.0742C19.0751 44.2314 19.0761 44.2308 19.0772 44.2303V44.2333C19.0761 44.2339 19.0751 44.2341 19.0742 44.2341H19.0719C19.0698 44.2341 19.0681 44.2337 19.0666 44.2325C19.0654 44.2316 19.0651 44.2303 19.0651 44.2287C19.0651 44.2269 19.0654 44.2253 19.0666 44.2242C19.0681 44.2227 19.0698 44.2219 19.0719 44.2219C19.0734 44.2219 19.0745 44.2227 19.0757 44.2242C19.0766 44.2253 19.0772 44.2265 19.0772 44.228H19.0772ZM19.0742 44.2272C19.0742 44.2263 19.0738 44.2257 19.0734 44.2257C19.0728 44.2253 19.0723 44.225 19.0719 44.225C19.0707 44.225 19.07 44.2253 19.0696 44.2257C19.069 44.2257 19.0689 44.2263 19.0689 44.2272H19.0742Z" fill="white"/>
<path d="M19.0883 44.2241V44.218H19.0914V44.2339H19.0883V44.2324C19.0878 44.233 19.087 44.2336 19.086 44.2339H19.0845C19.083 44.2339 19.0817 44.2336 19.0807 44.2324C19.0796 44.2315 19.0792 44.2301 19.0792 44.2286C19.0792 44.2267 19.0796 44.2252 19.0807 44.2241C19.0817 44.2226 19.083 44.2218 19.0845 44.2218C19.0849 44.2218 19.0855 44.2222 19.086 44.2226C19.087 44.2231 19.0878 44.2237 19.0883 44.2241V44.2241ZM19.086 44.2317C19.0864 44.2317 19.087 44.2315 19.0876 44.2309C19.0879 44.2305 19.0883 44.2298 19.0883 44.2286C19.0883 44.2271 19.0879 44.2262 19.0876 44.2256C19.087 44.2252 19.0864 44.2248 19.086 44.2248C19.0849 44.2248 19.0842 44.2252 19.0838 44.2256C19.0832 44.2262 19.083 44.2271 19.083 44.2286C19.083 44.2298 19.0832 44.2305 19.0838 44.2309C19.0842 44.2315 19.0849 44.2317 19.086 44.2317Z" fill="white"/>
<path d="M19.1085 44.2317C19.1094 44.2317 19.11 44.2315 19.11 44.2309C19.1104 44.2305 19.1108 44.2298 19.1108 44.2286C19.1108 44.2271 19.1104 44.2262 19.11 44.2256C19.11 44.2252 19.1094 44.2248 19.1085 44.2248C19.1079 44.2248 19.1073 44.2252 19.107 44.2256C19.1064 44.2262 19.1062 44.2271 19.1062 44.2286C19.1062 44.2292 19.1064 44.23 19.107 44.2309C19.1073 44.2315 19.1079 44.2317 19.1085 44.2317ZM19.1062 44.2241L19.1077 44.2226C19.1087 44.2222 19.1094 44.2218 19.11 44.2218C19.1115 44.2218 19.1127 44.2226 19.1138 44.2241C19.1147 44.2252 19.1153 44.2267 19.1153 44.2286C19.1153 44.2301 19.1147 44.2315 19.1138 44.2324C19.1127 44.2336 19.1115 44.2339 19.11 44.2339H19.1077C19.1072 44.2336 19.1066 44.233 19.1062 44.2324V44.2339H19.1024V44.218H19.1062V44.2241Z" fill="white"/>
<path d="M19.1158 44.2227H19.1196L19.1227 44.2302L19.1257 44.2227H19.1295L19.1242 44.2348C19.1236 44.2363 19.123 44.2373 19.1227 44.2378C19.1221 44.2382 19.1213 44.2386 19.1204 44.2386H19.1181V44.2363H19.1189C19.1198 44.2363 19.1204 44.2359 19.1204 44.2355C19.1204 44.2355 19.1206 44.2352 19.1212 44.2348V44.234L19.1158 44.2227Z" fill="white"/>
<path d="M19.1422 44.2325V44.2386H19.1384V44.2227H19.1422V44.2242L19.1437 44.2227C19.1447 44.2223 19.1454 44.2219 19.146 44.2219C19.1475 44.2219 19.1487 44.2227 19.1498 44.2242C19.1507 44.2253 19.1513 44.2269 19.1513 44.2287C19.1513 44.2303 19.1507 44.2316 19.1498 44.2325C19.1487 44.2337 19.1475 44.2341 19.146 44.2341H19.1437C19.1432 44.2337 19.1426 44.2331 19.1422 44.2325V44.2325ZM19.1445 44.225C19.1439 44.225 19.1434 44.2253 19.143 44.2257C19.1424 44.2263 19.1422 44.2272 19.1422 44.2287C19.1422 44.2293 19.1424 44.2301 19.143 44.231C19.1434 44.2316 19.1439 44.2318 19.1445 44.2318C19.1454 44.2318 19.146 44.2316 19.146 44.231C19.1464 44.2306 19.1468 44.2299 19.1468 44.2287C19.1468 44.2272 19.1464 44.2263 19.146 44.2257C19.146 44.2253 19.1454 44.225 19.1445 44.225Z" fill="white"/>
<path d="M19.1594 44.225C19.1583 44.225 19.1575 44.2253 19.1571 44.2257C19.1566 44.2263 19.1564 44.2272 19.1564 44.2287C19.1564 44.2299 19.1566 44.2306 19.1571 44.231C19.1575 44.2316 19.1583 44.2318 19.1594 44.2318C19.1598 44.2318 19.1604 44.2316 19.1609 44.231C19.1613 44.2306 19.1617 44.2299 19.1617 44.2287C19.1617 44.2272 19.1613 44.2263 19.1609 44.2257C19.1604 44.2253 19.1598 44.225 19.1594 44.225ZM19.1594 44.2219C19.1609 44.2219 19.1621 44.2227 19.1632 44.2242C19.1647 44.2253 19.1655 44.2269 19.1655 44.2287C19.1655 44.2303 19.1647 44.2316 19.1632 44.2325C19.1621 44.2337 19.1609 44.2341 19.1594 44.2341C19.1573 44.2341 19.1556 44.2337 19.1541 44.2325C19.153 44.2316 19.1526 44.2303 19.1526 44.2287C19.1526 44.2269 19.153 44.2253 19.1541 44.2242C19.1556 44.2227 19.1573 44.2219 19.1594 44.2219Z" fill="white"/>
<path d="M19.1715 44.2325V44.2386H19.1677V44.2227H19.1715V44.2242L19.173 44.2227C19.174 44.2223 19.1747 44.2219 19.1753 44.2219C19.1768 44.2219 19.178 44.2227 19.1791 44.2242C19.18 44.2253 19.1806 44.2269 19.1806 44.2287C19.1806 44.2303 19.18 44.2316 19.1791 44.2325C19.178 44.2337 19.1768 44.2341 19.1753 44.2341H19.173C19.1725 44.2337 19.1719 44.2331 19.1715 44.2325V44.2325ZM19.1738 44.225C19.1732 44.225 19.1727 44.2253 19.1723 44.2257C19.1717 44.2263 19.1715 44.2272 19.1715 44.2287C19.1715 44.2293 19.1717 44.2301 19.1723 44.231C19.1727 44.2316 19.1732 44.2318 19.1738 44.2318C19.1747 44.2318 19.1753 44.2316 19.1753 44.231C19.1757 44.2306 19.1761 44.2299 19.1761 44.2287C19.1761 44.2272 19.1757 44.2263 19.1753 44.2257C19.1753 44.2253 19.1747 44.225 19.1738 44.225Z" fill="white"/>
<path d="M19.1927 44.2227V44.2257H19.1905C19.1905 44.2253 19.1899 44.225 19.189 44.225C19.1884 44.225 19.1876 44.2253 19.1867 44.2257C19.1861 44.2263 19.1859 44.2272 19.1859 44.2287C19.1859 44.2293 19.1861 44.2301 19.1867 44.231C19.1876 44.2316 19.1884 44.2318 19.189 44.2318H19.1912C19.1916 44.2314 19.1922 44.231 19.1927 44.231V44.2341H19.1905H19.189C19.1869 44.2341 19.1852 44.2337 19.1836 44.2325C19.1825 44.2316 19.1821 44.2303 19.1821 44.2287C19.1821 44.2269 19.1825 44.2253 19.1836 44.2242C19.1852 44.2227 19.1869 44.2219 19.189 44.2219C19.1893 44.2219 19.1899 44.2223 19.1905 44.2227H19.1927Z" fill="white"/>
<path d="M19.2013 44.225C19.2001 44.225 19.1994 44.2253 19.199 44.2257C19.1984 44.2263 19.1982 44.2272 19.1982 44.2287C19.1982 44.2299 19.1984 44.2306 19.199 44.231C19.1994 44.2316 19.2001 44.2318 19.2013 44.2318C19.2017 44.2318 19.2022 44.2316 19.2028 44.231C19.2032 44.2306 19.2036 44.2299 19.2036 44.2287C19.2036 44.2272 19.2032 44.2263 19.2028 44.2257C19.2022 44.2253 19.2017 44.225 19.2013 44.225ZM19.2013 44.2219C19.2028 44.2219 19.2039 44.2227 19.2051 44.2242C19.2066 44.2253 19.2073 44.2269 19.2073 44.2287C19.2073 44.2303 19.2066 44.2316 19.2051 44.2325C19.2039 44.2337 19.2028 44.2341 19.2013 44.2341C19.1992 44.2341 19.1975 44.2337 19.196 44.2325C19.1948 44.2316 19.1945 44.2303 19.1945 44.2287C19.1945 44.2269 19.1948 44.2253 19.196 44.2242C19.1975 44.2227 19.1992 44.2219 19.2013 44.2219Z" fill="white"/>
<path d="M19.2182 44.2257H19.2174C19.2174 44.2253 19.217 44.225 19.2167 44.225C19.2155 44.225 19.2148 44.2255 19.2144 44.2265C19.2138 44.227 19.2136 44.2278 19.2136 44.2287V44.2341H19.2098V44.2227H19.2136V44.2242L19.2151 44.2227C19.2155 44.2223 19.2163 44.2219 19.2174 44.2219H19.2182V44.2257Z" fill="white"/>
<path d="M19.2322 44.2272V44.2341H19.2284V44.2287V44.2272C19.2284 44.2269 19.2281 44.2263 19.2277 44.2257H19.2269C19.2269 44.2253 19.2265 44.225 19.2262 44.225C19.2256 44.225 19.225 44.2253 19.2246 44.2257C19.2241 44.2263 19.2239 44.2272 19.2239 44.2287V44.2341H19.2201V44.2227H19.2239V44.2242L19.2254 44.2227C19.2263 44.2223 19.2271 44.2219 19.2277 44.2219C19.2292 44.2219 19.2301 44.2225 19.2307 44.2234C19.2317 44.2246 19.2322 44.2257 19.2322 44.2272V44.2272Z" fill="white"/>
<path d="M19.2403 44.2287C19.2397 44.2287 19.2392 44.2291 19.2388 44.2295C19.2382 44.2295 19.238 44.2299 19.238 44.2303V44.2318H19.2396C19.2405 44.2318 19.2413 44.2316 19.2418 44.231C19.2422 44.2306 19.2426 44.2301 19.2426 44.2295V44.2287H19.2403ZM19.2456 44.2272V44.2341H19.2426V44.2325C19.242 44.2331 19.2413 44.2337 19.2403 44.2341H19.238C19.2369 44.2341 19.236 44.2339 19.235 44.2333C19.2344 44.2329 19.2343 44.2318 19.2343 44.2303C19.2343 44.2293 19.2346 44.2286 19.2358 44.228C19.2367 44.227 19.2382 44.2265 19.2403 44.2265H19.2426C19.2426 44.2261 19.2422 44.2257 19.2418 44.2257C19.2413 44.2253 19.2405 44.225 19.2396 44.225H19.2365C19.236 44.225 19.2358 44.2253 19.2358 44.2257V44.2227H19.2373C19.2382 44.2223 19.2392 44.2219 19.2403 44.2219C19.2422 44.2219 19.2435 44.2225 19.2441 44.2234C19.2451 44.2246 19.2456 44.2257 19.2456 44.2272V44.2272Z" fill="white"/>
<path d="M19.2576 44.2257H19.2568C19.2568 44.2253 19.2565 44.225 19.2561 44.225C19.255 44.225 19.2542 44.2255 19.2538 44.2265C19.2532 44.227 19.2531 44.2278 19.2531 44.2287V44.2341H19.2493V44.2227H19.2531V44.2242L19.2546 44.2227C19.255 44.2223 19.2557 44.2219 19.2568 44.2219H19.2576V44.2257Z" fill="white"/>
<path d="M19.2642 44.2197V44.2228H19.268V44.225H19.2642V44.2303V44.2319H19.2658H19.2673V44.2341H19.2642C19.2627 44.2341 19.2616 44.2339 19.2612 44.2334C19.2606 44.2324 19.2605 44.2315 19.2605 44.2303V44.225H19.2582V44.2228H19.2605V44.2197H19.2642Z" fill="white"/>
<path d="M19.2787 44.2227V44.2257C19.2781 44.2253 19.2773 44.225 19.2764 44.225H19.2741H19.2726V44.2257V44.2265H19.2741H19.2749C19.2768 44.227 19.2781 44.2276 19.2787 44.228C19.279 44.2286 19.2794 44.2295 19.2794 44.231C19.2794 44.2322 19.2788 44.2329 19.2779 44.2333C19.2773 44.2339 19.276 44.2341 19.2741 44.2341H19.2711H19.2696V44.231C19.2699 44.2316 19.2705 44.2318 19.2711 44.2318H19.2741H19.2749C19.2752 44.2318 19.2756 44.2316 19.2756 44.231V44.2303C19.2756 44.2299 19.2751 44.2295 19.2741 44.2295H19.2733C19.2718 44.2295 19.2705 44.2293 19.2696 44.2287C19.269 44.2278 19.2688 44.2269 19.2688 44.2257C19.2688 44.2248 19.2692 44.224 19.2703 44.2234C19.2713 44.2225 19.2726 44.2219 19.2741 44.2219C19.2751 44.2219 19.2758 44.2223 19.2764 44.2227H19.2787Z" fill="white"/>
<path d="M19.0091 44.2393V44.2415H19.0076C19.007 44.2415 19.0064 44.2419 19.0061 44.2423V44.243V44.2438H19.0091V44.2461H19.0061V44.2552H19.0023V44.2461H19V44.2438H19.0023V44.243C19.0023 44.2415 19.0025 44.2406 19.003 44.24C19.004 44.2396 19.0053 44.2393 19.0068 44.2393H19.0091Z" fill="white"/>
<path d="M19.019 44.2467H19.0182C19.0182 44.2463 19.0178 44.246 19.0174 44.246C19.0163 44.246 19.0155 44.2465 19.0152 44.2475C19.0146 44.248 19.0144 44.2488 19.0144 44.2497V44.2551H19.0106V44.2437H19.0144V44.2452L19.0159 44.2437C19.0163 44.2433 19.0171 44.2429 19.0182 44.2429H19.019V44.2467Z" fill="white"/>
<path d="M19.0271 44.246C19.0259 44.246 19.0252 44.2463 19.0248 44.2467C19.0242 44.2473 19.0241 44.2482 19.0241 44.2497C19.0241 44.2509 19.0242 44.2516 19.0248 44.252C19.0252 44.2526 19.0259 44.2528 19.0271 44.2528C19.0275 44.2528 19.028 44.2526 19.0286 44.252C19.029 44.2516 19.0294 44.2509 19.0294 44.2497C19.0294 44.2482 19.029 44.2473 19.0286 44.2467C19.028 44.2463 19.0275 44.246 19.0271 44.246ZM19.0271 44.2429C19.0286 44.2429 19.0297 44.2437 19.0309 44.2452C19.0324 44.2463 19.0332 44.2478 19.0332 44.2497C19.0332 44.2513 19.0324 44.2526 19.0309 44.2535C19.0297 44.2547 19.0286 44.255 19.0271 44.255C19.025 44.255 19.0233 44.2547 19.0218 44.2535C19.0206 44.2526 19.0203 44.2513 19.0203 44.2497C19.0203 44.2478 19.0206 44.2463 19.0218 44.2452C19.0233 44.2437 19.025 44.2429 19.0271 44.2429Z" fill="white"/>
<path d="M19.046 44.2452C19.0464 44.2448 19.047 44.2442 19.0475 44.2437C19.0485 44.2433 19.0492 44.2429 19.0498 44.2429C19.0513 44.2429 19.0523 44.2435 19.0528 44.2444C19.0538 44.2456 19.0544 44.2467 19.0544 44.2482V44.255H19.0506V44.249V44.2482C19.0506 44.2478 19.0502 44.2473 19.0498 44.2467C19.0498 44.2463 19.0494 44.246 19.049 44.246C19.0485 44.246 19.0479 44.2463 19.0475 44.2467C19.047 44.2473 19.0468 44.2482 19.0468 44.2497V44.255H19.043V44.249C19.043 44.248 19.0426 44.2473 19.0422 44.2467C19.0422 44.2463 19.0418 44.246 19.0415 44.246C19.0409 44.246 19.0403 44.2463 19.0399 44.2467C19.0394 44.2473 19.0392 44.2482 19.0392 44.2497V44.2551H19.0354V44.2437H19.0392V44.2452L19.0407 44.2437C19.0411 44.2433 19.0418 44.2429 19.043 44.2429C19.0434 44.2429 19.0439 44.2433 19.0445 44.2437C19.0454 44.2442 19.046 44.2448 19.046 44.2452Z" fill="white"/>
<path d="M19.0692 44.2407V44.2438H19.073V44.246H19.0692V44.2513V44.2529H19.0707H19.0722V44.2551H19.0692C19.0677 44.2551 19.0665 44.2549 19.0661 44.2544C19.0656 44.2534 19.0654 44.2525 19.0654 44.2513V44.246H19.0631V44.2438H19.0654V44.2407H19.0692Z" fill="white"/>
<path d="M19.0868 44.2484V44.2552H19.083V44.2499V44.2484C19.083 44.248 19.0827 44.2474 19.0823 44.2468H19.0815C19.0815 44.2465 19.0812 44.2461 19.0808 44.2461C19.0802 44.2461 19.0796 44.2465 19.0793 44.2468C19.0787 44.2474 19.0785 44.2484 19.0785 44.2499V44.2552H19.0747V44.2393H19.0785V44.2453L19.08 44.2438C19.081 44.2434 19.0817 44.243 19.0823 44.243C19.0838 44.243 19.0848 44.2436 19.0853 44.2446C19.0863 44.2457 19.0868 44.2468 19.0868 44.2484Z" fill="white"/>
<path d="M19.101 44.249V44.2505H19.0927C19.0927 44.2516 19.0928 44.2524 19.0934 44.2528H19.0957H19.098C19.0989 44.2524 19.0999 44.2518 19.101 44.2513V44.2543C19.0999 44.2549 19.0989 44.255 19.098 44.255H19.0957C19.0936 44.255 19.0919 44.2547 19.0904 44.2535C19.0892 44.2526 19.0889 44.2513 19.0889 44.2497C19.0889 44.2478 19.0892 44.2463 19.0904 44.2452C19.0919 44.2437 19.0936 44.2429 19.0957 44.2429C19.0972 44.2429 19.0983 44.2437 19.0995 44.2452C19.1004 44.2463 19.101 44.2475 19.101 44.249H19.101ZM19.098 44.2482C19.098 44.2473 19.0976 44.2467 19.0972 44.2467C19.0966 44.2463 19.0961 44.246 19.0957 44.246C19.0946 44.246 19.0938 44.2463 19.0934 44.2467C19.0928 44.2467 19.0927 44.2473 19.0927 44.2482H19.098Z" fill="white"/>
<path d="M19.1121 44.24H19.1159L19.1219 44.2506V44.24H19.1257V44.2552H19.1212L19.1151 44.2445V44.2552H19.1121V44.24Z" fill="white"/>
<path d="M19.1348 44.246C19.1336 44.246 19.1329 44.2463 19.1325 44.2467C19.1319 44.2473 19.1317 44.2482 19.1317 44.2497C19.1317 44.2509 19.1319 44.2516 19.1325 44.252C19.1329 44.2526 19.1336 44.2528 19.1348 44.2528C19.1351 44.2528 19.1357 44.2526 19.1363 44.252C19.1366 44.2516 19.137 44.2509 19.137 44.2497C19.137 44.2482 19.1366 44.2473 19.1363 44.2467C19.1357 44.2463 19.1351 44.246 19.1348 44.246ZM19.1348 44.2429C19.1363 44.2429 19.1374 44.2437 19.1385 44.2452C19.1401 44.2463 19.1408 44.2478 19.1408 44.2497C19.1408 44.2513 19.1401 44.2526 19.1385 44.2535C19.1374 44.2547 19.1363 44.255 19.1348 44.255C19.1327 44.255 19.131 44.2547 19.1294 44.2535C19.1283 44.2526 19.1279 44.2513 19.1279 44.2497C19.1279 44.2478 19.1283 44.2463 19.1294 44.2452C19.131 44.2437 19.1327 44.2429 19.1348 44.2429Z" fill="white"/>
<path d="M19.1431 44.2505V44.2437H19.1469V44.2444V44.2467V44.249V44.2512V44.252C19.1472 44.252 19.1476 44.2524 19.1476 44.2528H19.1491C19.1495 44.2528 19.1501 44.2526 19.1506 44.252C19.151 44.251 19.1514 44.2501 19.1514 44.249V44.2437H19.1544V44.255H19.1514V44.2535C19.1503 44.2541 19.1495 44.2546 19.1491 44.255H19.1469C19.1457 44.255 19.1448 44.2548 19.1438 44.2543C19.1433 44.2533 19.1431 44.252 19.1431 44.2505V44.2505Z" fill="white"/>
<path d="M19.1702 44.2482V44.2551H19.1664V44.2497V44.2482C19.1664 44.2478 19.166 44.2473 19.1657 44.2467H19.1649C19.1649 44.2463 19.1645 44.246 19.1641 44.246C19.1636 44.246 19.163 44.2463 19.1626 44.2467C19.1621 44.2473 19.1619 44.2482 19.1619 44.2497V44.2551H19.1581V44.2437H19.1619V44.2452L19.1634 44.2437C19.1643 44.2433 19.1651 44.2429 19.1657 44.2429C19.1672 44.2429 19.1681 44.2435 19.1687 44.2444C19.1696 44.2456 19.1702 44.2467 19.1702 44.2482V44.2482Z" fill="white"/>
<path d="M19.1812 44.24H19.1872C19.1891 44.24 19.1906 44.2406 19.1918 44.2415C19.1927 44.2421 19.1933 44.2434 19.1933 44.2453C19.1933 44.2468 19.1927 44.2481 19.1918 44.2491C19.1906 44.2497 19.1891 44.2498 19.1872 44.2498H19.1849V44.2552H19.1812V44.24ZM19.1849 44.243V44.2468H19.1872H19.1887C19.1891 44.2464 19.1895 44.2459 19.1895 44.2453C19.1895 44.2443 19.1891 44.2438 19.1887 44.2438C19.1882 44.2434 19.1876 44.243 19.1872 44.243H19.1849Z" fill="white"/>
<path d="M19.2041 44.2467H19.2034C19.2034 44.2463 19.203 44.246 19.2026 44.246C19.2015 44.246 19.2007 44.2465 19.2003 44.2475C19.1998 44.248 19.1996 44.2488 19.1996 44.2497V44.2551H19.1958V44.2437H19.1996V44.2452L19.2011 44.2437C19.2015 44.2433 19.2022 44.2429 19.2034 44.2429H19.2041V44.2467Z" fill="white"/>
<path d="M19.2123 44.246C19.2111 44.246 19.2104 44.2463 19.21 44.2467C19.2094 44.2473 19.2092 44.2482 19.2092 44.2497C19.2092 44.2509 19.2094 44.2516 19.21 44.252C19.2104 44.2526 19.2111 44.2528 19.2123 44.2528C19.2126 44.2528 19.2132 44.2526 19.2138 44.252C19.2142 44.2516 19.2145 44.2509 19.2145 44.2497C19.2145 44.2482 19.2142 44.2473 19.2138 44.2467C19.2132 44.2463 19.2126 44.246 19.2123 44.246ZM19.2123 44.2429C19.2138 44.2429 19.2149 44.2437 19.2161 44.2452C19.2176 44.2463 19.2183 44.2478 19.2183 44.2497C19.2183 44.2513 19.2176 44.2526 19.2161 44.2535C19.2149 44.2547 19.2138 44.255 19.2123 44.255C19.2102 44.255 19.2085 44.2547 19.207 44.2535C19.2058 44.2526 19.2054 44.2513 19.2054 44.2497C19.2054 44.2478 19.2058 44.2463 19.207 44.2452C19.2085 44.2437 19.2102 44.2429 19.2123 44.2429Z" fill="white"/>
<path d="M19.2207 44.2438H19.2244V44.2552C19.2244 44.2567 19.2239 44.2576 19.2229 44.2582C19.2224 44.2592 19.2214 44.2597 19.2199 44.2597H19.2184V44.2575H19.2191C19.2195 44.2575 19.2199 44.2571 19.2199 44.2567C19.2203 44.2567 19.2207 44.2561 19.2207 44.2552V44.2438ZM19.2207 44.2393H19.2244V44.2423H19.2207V44.2393Z" fill="white"/>
<path d="M19.2392 44.249V44.2505H19.2308C19.2308 44.2516 19.231 44.2524 19.2316 44.2528H19.2339H19.2361C19.2371 44.2524 19.238 44.2518 19.2392 44.2513V44.2543C19.238 44.2549 19.2371 44.255 19.2361 44.255H19.2339C19.2318 44.255 19.2301 44.2547 19.2286 44.2535C19.2274 44.2526 19.2271 44.2513 19.2271 44.2497C19.2271 44.2478 19.2274 44.2463 19.2286 44.2452C19.2301 44.2437 19.2318 44.2429 19.2339 44.2429C19.2354 44.2429 19.2365 44.2437 19.2377 44.2452C19.2386 44.2463 19.2392 44.2475 19.2392 44.249H19.2392ZM19.2361 44.2482C19.2361 44.2473 19.2358 44.2467 19.2354 44.2467C19.2348 44.2463 19.2343 44.246 19.2339 44.246C19.2327 44.246 19.232 44.2463 19.2316 44.2467C19.231 44.2467 19.2308 44.2473 19.2308 44.2482H19.2361Z" fill="white"/>
<path d="M19.2519 44.2437V44.2467H19.2497C19.2497 44.2463 19.2491 44.246 19.2482 44.246C19.2476 44.246 19.2468 44.2463 19.2459 44.2467C19.2453 44.2473 19.2451 44.2482 19.2451 44.2497C19.2451 44.2503 19.2453 44.2511 19.2459 44.252C19.2468 44.2526 19.2476 44.2528 19.2482 44.2528H19.2504C19.2508 44.2524 19.2514 44.252 19.2519 44.252V44.255H19.2497H19.2482C19.2461 44.255 19.2444 44.2547 19.2428 44.2535C19.2417 44.2526 19.2413 44.2513 19.2413 44.2497C19.2413 44.2478 19.2417 44.2463 19.2428 44.2452C19.2444 44.2437 19.2461 44.2429 19.2482 44.2429C19.2485 44.2429 19.2491 44.2433 19.2497 44.2437H19.2519Z" fill="white"/>
<path d="M19.2591 44.2407V44.2438H19.2629V44.246H19.2591V44.2513V44.2529H19.2606H19.2621V44.2551H19.2591C19.2576 44.2551 19.2565 44.2549 19.2561 44.2544C19.2555 44.2534 19.2553 44.2525 19.2553 44.2513V44.246H19.2531V44.2438H19.2553V44.2407H19.2591Z" fill="white"/>
<defs>
<filter id="filter0_d_33_1410" x="0" y="0" width="66" height="66" filterUnits="userSpaceOnUse" color-interpolation-filters="sRGB">
<feFlood flood-opacity="0" result="BackgroundImageFix"/>
<feColorMatrix in="SourceAlpha" type="matrix" values="0 0 0 0 0 0 0 0 0 0 0 0 0 0 0 0 0 0 127 0" result="hardAlpha"/>
<feOffset dy="2"/>
<feGaussianBlur stdDeviation="2.5"/>
<feComposite in2="hardAlpha" operator="out"/>
<feColorMatrix type="matrix" values="0 0 0 0 0.362813 0 0 0 0 0.5375 0 0 0 0 0.442735 0 0 0 0.53 0"/>
<feBlend mode="normal" in2="BackgroundImageFix" result="effect1_dropShadow_33_1410"/>
<feBlend mode="normal" in="SourceGraphic" in2="effect1_dropShadow_33_1410" result="shape"/>
</filter>
</defs>
</svg>
