<svg width="66" height="66" viewBox="0 0 66 66" fill="none" xmlns="http://www.w3.org/2000/svg">
<g filter="url(#filter0_d_33_1503)">
<circle cx="33" cy="31" r="28" fill="#004AAC"/>
</g>
<path fill-rule="evenodd" clip-rule="evenodd" d="M21.15 21.1999C21.15 20.6201 21.6202 20.1499 22.2 20.1499H43.2C43.7799 20.1499 44.25 20.6201 44.25 21.1999V33.7999C44.25 34.3798 43.7799 34.8499 43.2 34.8499H22.2C21.6202 34.8499 21.15 34.3798 21.15 33.7999V21.1999ZM34.7442 23.4108C34.2256 23.1513 33.5951 23.3616 33.3356 23.8802L30.1856 30.1802C29.9264 30.6989 30.1364 31.3294 30.6553 31.5889C31.174 31.8481 31.8044 31.6381 32.0639 31.1192L35.2139 24.8192C35.4731 24.3005 35.2631 23.6698 34.7442 23.4105V23.4108ZM29.5048 25.8799C29.9147 25.4697 29.9147 24.8051 29.5048 24.3949C29.0946 23.985 28.4299 23.985 28.0198 24.3949L25.6573 26.7574C25.2474 27.1676 25.2474 27.8322 25.6573 28.2424L28.0198 30.6049C28.4299 31.0148 29.0946 31.0148 29.5048 30.6049C29.9147 30.1947 29.9147 29.5301 29.5048 29.1199L27.8848 27.4999L29.5048 25.8799ZM35.8948 24.3949C35.4849 24.8051 35.4849 25.4697 35.8948 25.8799L37.5148 27.4999L35.8948 29.1199C35.4849 29.5301 35.4849 30.1947 35.8948 30.6049C36.3049 31.0148 36.9696 31.0148 37.3798 30.6049L39.7423 28.2424C40.1522 27.8322 40.1522 27.1676 39.7423 26.7574L37.3798 24.3949C36.9696 23.985 36.3049 23.985 35.8948 24.3949Z" fill="white"/>
<path fill-rule="evenodd" clip-rule="evenodd" d="M18 20.15C18 18.4102 19.4102 17 21.15 17H44.25C45.9898 17 47.4 18.4102 47.4 20.15V34.85C47.4 36.5898 45.9898 38 44.25 38H36.9708C37.0861 38.8534 37.3414 39.6842 37.7285 40.4586L38.5993 42.2H39.0003C39.5801 42.2 40.0503 42.6702 40.0503 43.25C40.0503 43.8298 39.5801 44.3 39.0003 44.3H26.4003C25.8204 44.3 25.3503 43.8298 25.3503 43.25C25.3503 42.6702 25.8204 42.2 26.4003 42.2H26.8013L27.672 40.4586C28.0592 39.6843 28.3144 38.8534 28.4298 38H21.1506C19.4108 38 18.0006 36.5898 18.0006 34.85L18 20.15ZM45.3 34.85C45.3 35.4298 44.8299 35.9 44.25 35.9H21.15C20.5702 35.9 20.1 35.4298 20.1 34.85V20.15C20.1 19.5702 20.5702 19.1 21.15 19.1H44.25C44.8299 19.1 45.3 19.5702 45.3 20.15V34.85Z" fill="white"/>
<defs>
<filter id="filter0_d_33_1503" x="0" y="0" width="66" height="66" filterUnits="userSpaceOnUse" color-interpolation-filters="sRGB">
<feFlood flood-opacity="0" result="BackgroundImageFix"/>
<feColorMatrix in="SourceAlpha" type="matrix" values="0 0 0 0 0 0 0 0 0 0 0 0 0 0 0 0 0 0 127 0" result="hardAlpha"/>
<feOffset dy="2"/>
<feGaussianBlur stdDeviation="2.5"/>
<feComposite in2="hardAlpha" operator="out"/>
<feColorMatrix type="matrix" values="0 0 0 0 0.362813 0 0 0 0 0.5375 0 0 0 0 0.442735 0 0 0 0.28 0"/>
<feBlend mode="normal" in2="BackgroundImageFix" result="effect1_dropShadow_33_1503"/>
<feBlend mode="normal" in="SourceGraphic" in2="effect1_dropShadow_33_1503" result="shape"/>
</filter>
</defs>
</svg>
