<svg width="97" height="50" viewBox="0 0 97 50" fill="none" xmlns="http://www.w3.org/2000/svg">
<path d="M0.973633 0.38028V40.8117H5.65261V48.9127L13.7537 40.8117H96.3169V0.38028H0.973633Z" fill="white"/>
<path d="M0.941922 0.380233C1.07923 12.3047 1.17428 29.0983 1.23766 40.8116L0.941922 40.5159H5.93775V40.8222V48.9233L5.34628 48.6803L13.4157 40.5581L13.5318 40.442L75.6154 40.3047H96.2535L95.7782 40.7694L95.8733 0.337984L96.2535 0.728782C72.489 0.728782 24.6748 0.485852 0.910237 0.337984L0.941922 0.380233ZM0.941922 0.380233C24.6959 0.242927 72.5313 0.021124 96.2852 0H96.6655V0.380233L96.7605 40.8116V41.2869H96.2852C73.26 41.4031 37.0112 41.2869 13.722 41.2024L13.9966 41.0862L5.86382 49.1556L5.28291 49.7365V48.9127V40.8116L5.5892 41.1285H0.910237H0.614502C0.625064 29.2251 0.941922 12.4526 0.941922 0.380233Z" fill="#263238"/>
<path d="M33.7476 20.6489C33.7476 22.9259 33.0724 25.1518 31.8074 27.045C30.5424 28.9382 28.7444 30.4138 26.6407 31.2852C24.537 32.1566 22.2222 32.3846 19.989 31.9403C17.7558 31.4961 15.7044 30.3996 14.0944 28.7896C12.4843 27.1795 11.3878 25.1282 10.9436 22.8949C10.4994 20.6617 10.7274 18.3469 11.5988 16.2433C12.4701 14.1396 13.9457 12.3416 15.839 11.0766C17.7322 9.81155 19.958 9.13635 22.235 9.13635C25.2884 9.13635 28.2166 10.3493 30.3757 12.5083C32.5347 14.6673 33.7476 17.5956 33.7476 20.6489Z" fill="black"/>
<path d="M22.3828 22.6135C24.3836 22.6135 26.0056 20.9915 26.0056 18.9907C26.0056 16.9899 24.3836 15.368 22.3828 15.368C20.382 15.368 18.76 16.9899 18.76 18.9907C18.76 20.9915 20.382 22.6135 22.3828 22.6135Z" fill="white"/>
<path d="M16.1301 28.9822V30.4715C17.1889 31.1331 18.3483 31.6182 19.5628 31.9079C21.0959 32.2882 22.6898 32.357 24.25 32.1103C25.8102 31.8635 27.3051 31.3063 28.6461 30.4715V28.9822C28.6807 28.1388 28.5445 27.297 28.2457 26.5076C27.9468 25.7181 27.4914 24.9972 26.9069 24.3881C26.3224 23.7791 25.6208 23.2945 24.8442 22.9635C24.0677 22.6324 23.2322 22.4618 22.3881 22.4618C21.5439 22.4618 20.7085 22.6324 19.9319 22.9635C19.1554 23.2945 18.4538 23.7791 17.8693 24.3881C17.2848 24.9972 16.8294 25.7181 16.5305 26.5076C16.2316 27.297 16.0954 28.1388 16.1301 28.9822Z" fill="white"/>
<path d="M85.0789 13.6566H41.9014V14.3115H85.0789V13.6566Z" fill="black"/>
<path d="M85.0789 18.1351H41.9014V18.7899H85.0789V18.1351Z" fill="black"/>
<path d="M85.0789 22.6134H41.9014V23.2682H85.0789V22.6134Z" fill="black"/>
<path d="M63.3 27.0918H41.9014V27.7467H63.3V27.0918Z" fill="black"/>
</svg>
